<mxfile host="Electron" modified="2023-08-03T07:59:43.753Z" agent="Mozilla/5.0 (Windows NT 10.0; Win64; x64) AppleWebKit/537.36 (KHTML, like Gecko) draw.io/21.5.0 Chrome/112.0.5615.204 Electron/24.5.1 Safari/537.36" etag="j-MMvT-WrCn_IyYCssC6" version="21.5.0" type="device">
  <diagram name="第 1 页" id="ritLLQ8AjiHa31bUFr7D">
    <mxGraphModel dx="859" dy="826" grid="1" gridSize="10" guides="0" tooltips="1" connect="1" arrows="1" fold="1" page="1" pageScale="1" pageWidth="1169" pageHeight="827" math="0" shadow="0">
      <root>
        <mxCell id="0" />
        <mxCell id="1" parent="0" />
        <mxCell id="1Q9LCKEvSBst11ffKUaf-49" value="&lt;span style=&quot;color: rgb(0, 0, 0); font-family: Helvetica; font-size: 8px; font-style: normal; font-variant-ligatures: normal; font-variant-caps: normal; font-weight: 400; letter-spacing: normal; orphans: 2; text-align: center; text-indent: 0px; text-transform: none; widows: 2; word-spacing: 0px; -webkit-text-stroke-width: 0px; text-decoration-thickness: initial; text-decoration-style: initial; text-decoration-color: initial; float: none; display: inline !important;&quot;&gt;mem_rd_o&lt;/span&gt;" style="text;whiteSpace=wrap;html=1;" parent="1" vertex="1">
          <mxGeometry x="630" y="764" width="50" as="geometry" />
        </mxCell>
        <mxCell id="1Q9LCKEvSBst11ffKUaf-52" value="&lt;span style=&quot;color: rgb(0, 0, 0); font-family: Helvetica; font-size: 8px; font-style: normal; font-variant-ligatures: normal; font-variant-caps: normal; font-weight: 400; letter-spacing: normal; orphans: 2; text-align: center; text-indent: 0px; text-transform: none; widows: 2; word-spacing: 0px; -webkit-text-stroke-width: 0px; text-decoration-thickness: initial; text-decoration-style: initial; text-decoration-color: initial; float: none; display: inline !important;&quot;&gt;mem_wr_o[3:0]&lt;/span&gt;" style="text;whiteSpace=wrap;html=1;" parent="1" vertex="1">
          <mxGeometry x="630" y="774" width="50" as="geometry" />
        </mxCell>
        <mxCell id="1Q9LCKEvSBst11ffKUaf-40" value="&lt;span style=&quot;color: rgb(0, 0, 0); font-family: Helvetica; font-size: 8px; font-style: normal; font-variant-ligatures: normal; font-variant-caps: normal; font-weight: 400; letter-spacing: normal; orphans: 2; text-align: center; text-indent: 0px; text-transform: none; widows: 2; word-spacing: 0px; -webkit-text-stroke-width: 0px; text-decoration-thickness: initial; text-decoration-style: initial; text-decoration-color: initial; float: none; display: inline !important;&quot;&gt;mem_data_wr_o[31:0]&lt;/span&gt;" style="text;whiteSpace=wrap;html=1;" parent="1" vertex="1">
          <mxGeometry x="630" y="784" width="70" height="10" as="geometry" />
        </mxCell>
        <mxCell id="Wg4XXlyoonWXszrXRrK6-7" value="&lt;span style=&quot;color: rgb(0, 0, 0); font-family: Helvetica; font-size: 8px; font-style: normal; font-variant-ligatures: normal; font-variant-caps: normal; font-weight: 400; letter-spacing: normal; orphans: 2; text-align: center; text-indent: 0px; text-transform: none; widows: 2; word-spacing: 0px; -webkit-text-stroke-width: 0px; background-color: rgb(251, 251, 251); text-decoration-thickness: initial; text-decoration-style: initial; text-decoration-color: initial; float: none; display: inline !important;&quot;&gt;load_inst_w&lt;/span&gt;" style="text;whiteSpace=wrap;html=1;" parent="1" vertex="1">
          <mxGeometry x="310" y="673" width="41" height="14" as="geometry" />
        </mxCell>
        <mxCell id="Wg4XXlyoonWXszrXRrK6-9" value="&lt;span style=&quot;color: rgb(0, 0, 0); font-family: Helvetica; font-size: 8px; font-style: normal; font-variant-ligatures: normal; font-variant-caps: normal; font-weight: 400; letter-spacing: normal; orphans: 2; text-align: center; text-indent: 0px; text-transform: none; widows: 2; word-spacing: 0px; -webkit-text-stroke-width: 0px; background-color: rgb(251, 251, 251); text-decoration-thickness: initial; text-decoration-style: initial; text-decoration-color: initial; float: none; display: inline !important;&quot;&gt;load_signed_inst_w&lt;/span&gt;" style="text;whiteSpace=wrap;html=1;" parent="1" vertex="1">
          <mxGeometry x="310" y="693" width="49" height="11" as="geometry" />
        </mxCell>
        <mxCell id="c_AszAd_nw9M7-Ro6wcL-85" value="" style="shape=trapezoid;perimeter=trapezoidPerimeter;whiteSpace=wrap;html=1;fixedSize=1;rotation=90;size=8.75;" parent="1" vertex="1">
          <mxGeometry x="999" y="354" width="30" height="17" as="geometry" />
        </mxCell>
        <mxCell id="dMtXOD0O_kABDRuxHPhD-1" value="opcode_opcode_i[31:0]" style="text;whiteSpace=wrap;fontSize=10;" parent="1" vertex="1">
          <mxGeometry x="61" y="216" width="90" height="18" as="geometry" />
        </mxCell>
        <mxCell id="dMtXOD0O_kABDRuxHPhD-2" value="opcode_pc_i[31:0]" style="text;whiteSpace=wrap;fontSize=10;" parent="1" vertex="1">
          <mxGeometry x="134" y="92" width="70" height="21" as="geometry" />
        </mxCell>
        <mxCell id="dMtXOD0O_kABDRuxHPhD-3" value="opcode_rd_idx_i[4:0]" style="text;whiteSpace=wrap;fontSize=10;" parent="1" vertex="1">
          <mxGeometry x="122" y="111" width="80" height="19" as="geometry" />
        </mxCell>
        <mxCell id="dMtXOD0O_kABDRuxHPhD-4" value="opcode_ra_idx_i[4:0]" style="text;whiteSpace=wrap;fontSize=10;" parent="1" vertex="1">
          <mxGeometry x="122" y="131" width="80" height="20" as="geometry" />
        </mxCell>
        <mxCell id="dMtXOD0O_kABDRuxHPhD-6" value="opcode_ra_operand_i[31:0]" style="text;whiteSpace=wrap;fontSize=10;" parent="1" vertex="1">
          <mxGeometry x="52" y="329" width="100" height="10" as="geometry" />
        </mxCell>
        <mxCell id="dMtXOD0O_kABDRuxHPhD-7" value="opcode_rb_operand_i[31:0]" style="text;whiteSpace=wrap;fontSize=10;" parent="1" vertex="1">
          <mxGeometry x="54" y="409" width="100" height="20" as="geometry" />
        </mxCell>
        <mxCell id="dMtXOD0O_kABDRuxHPhD-8" value="" style="endArrow=classic;html=1;rounded=0;entryX=0;entryY=0.475;entryDx=0;entryDy=0;entryPerimeter=0;strokeWidth=1;edgeStyle=orthogonalEdgeStyle;" parent="1" target="dMtXOD0O_kABDRuxHPhD-15" edge="1">
          <mxGeometry width="50" height="50" relative="1" as="geometry">
            <mxPoint x="591" y="51" as="sourcePoint" />
            <mxPoint x="190" y="237.988" as="targetPoint" />
            <Array as="points">
              <mxPoint x="591" y="30" />
              <mxPoint x="61" y="30" />
              <mxPoint x="61" y="238" />
            </Array>
          </mxGeometry>
        </mxCell>
        <mxCell id="dMtXOD0O_kABDRuxHPhD-9" value="" style="endArrow=classic;html=1;rounded=0;strokeWidth=1;edgeStyle=orthogonalEdgeStyle;" parent="1" edge="1">
          <mxGeometry width="50" height="50" relative="1" as="geometry">
            <mxPoint x="591" y="81" as="sourcePoint" />
            <mxPoint x="230" y="112" as="targetPoint" />
            <Array as="points">
              <mxPoint x="590" y="81" />
              <mxPoint x="590" y="60" />
              <mxPoint x="91" y="60" />
              <mxPoint x="91" y="112" />
            </Array>
          </mxGeometry>
        </mxCell>
        <mxCell id="dMtXOD0O_kABDRuxHPhD-13" value="" style="endArrow=classic;html=1;rounded=0;strokeWidth=1;entryX=0;entryY=0.417;entryDx=0;entryDy=0;entryPerimeter=0;edgeStyle=orthogonalEdgeStyle;" parent="1" edge="1">
          <mxGeometry width="50" height="50" relative="1" as="geometry">
            <mxPoint x="591" y="41" as="sourcePoint" />
            <mxPoint x="230.00000000000006" y="349.02" as="targetPoint" />
            <Array as="points">
              <mxPoint x="591" y="20" />
              <mxPoint x="51" y="20" />
              <mxPoint x="51" y="349" />
            </Array>
          </mxGeometry>
        </mxCell>
        <mxCell id="dMtXOD0O_kABDRuxHPhD-15" value="&lt;font style=&quot;font-size: 15px;&quot;&gt;ALU &lt;br&gt;Decode&lt;/font&gt;" style="rounded=1;whiteSpace=wrap;html=1;" parent="1" vertex="1">
          <mxGeometry x="230" y="209" width="80" height="61" as="geometry" />
        </mxCell>
        <mxCell id="dMtXOD0O_kABDRuxHPhD-16" value="" style="endArrow=classic;html=1;rounded=0;strokeWidth=1;entryX=-0.033;entryY=0.107;entryDx=0;entryDy=0;entryPerimeter=0;" parent="1" edge="1">
          <mxGeometry width="50" height="50" relative="1" as="geometry">
            <mxPoint x="310" y="219" as="sourcePoint" />
            <mxPoint x="369.3499999999999" y="218.80700000000002" as="targetPoint" />
          </mxGeometry>
        </mxCell>
        <mxCell id="dMtXOD0O_kABDRuxHPhD-17" value="" style="endArrow=classic;html=1;rounded=0;strokeWidth=1;entryX=-0.036;entryY=0.304;entryDx=0;entryDy=0;entryPerimeter=0;" parent="1" edge="1">
          <mxGeometry width="50" height="50" relative="1" as="geometry">
            <mxPoint x="310" y="239" as="sourcePoint" />
            <mxPoint x="369.20000000000005" y="238.70399999999995" as="targetPoint" />
          </mxGeometry>
        </mxCell>
        <mxCell id="dMtXOD0O_kABDRuxHPhD-18" value="&lt;font style=&quot;font-size: 8px;&quot;&gt;shamt_r[4:0]&lt;/font&gt;" style="text;html=1;align=center;verticalAlign=middle;resizable=0;points=[];autosize=1;strokeColor=none;fillColor=none;" parent="1" vertex="1">
          <mxGeometry x="298" y="197" width="70" height="30" as="geometry" />
        </mxCell>
        <mxCell id="dMtXOD0O_kABDRuxHPhD-19" value="&lt;font style=&quot;font-size: 8px;&quot;&gt;imm[31:0]&lt;/font&gt;" style="text;html=1;align=center;verticalAlign=middle;resizable=0;points=[];autosize=1;strokeColor=none;fillColor=none;" parent="1" vertex="1">
          <mxGeometry x="299" y="238" width="60" height="30" as="geometry" />
        </mxCell>
        <mxCell id="dMtXOD0O_kABDRuxHPhD-37" value="" style="endArrow=classic;html=1;rounded=0;strokeWidth=1;" parent="1" edge="1">
          <mxGeometry width="50" height="50" relative="1" as="geometry">
            <mxPoint x="310" y="259" as="sourcePoint" />
            <mxPoint x="370" y="259" as="targetPoint" />
          </mxGeometry>
        </mxCell>
        <mxCell id="dMtXOD0O_kABDRuxHPhD-38" value="&lt;font style=&quot;font-size: 8px;&quot;&gt;alu_fun_r[3:0]&lt;/font&gt;" style="text;html=1;align=center;verticalAlign=middle;resizable=0;points=[];autosize=1;strokeColor=none;fillColor=none;" parent="1" vertex="1">
          <mxGeometry x="300" y="217" width="70" height="30" as="geometry" />
        </mxCell>
        <mxCell id="dMtXOD0O_kABDRuxHPhD-40" value="" style="shape=ellipse;fillColor=#000000;strokeColor=none;html=1;sketch=0;strokeWidth=0;" parent="1" vertex="1">
          <mxGeometry x="178" y="345.99999999999994" width="5" height="5" as="geometry" />
        </mxCell>
        <mxCell id="dMtXOD0O_kABDRuxHPhD-42" value="" style="shape=ellipse;fillColor=#000000;strokeColor=none;html=1;sketch=0;strokeWidth=0;" parent="1" vertex="1">
          <mxGeometry x="187" y="428" width="5" height="5" as="geometry" />
        </mxCell>
        <mxCell id="dMtXOD0O_kABDRuxHPhD-44" value="" style="endArrow=classic;html=1;rounded=0;strokeWidth=1;" parent="1" edge="1">
          <mxGeometry width="50" height="50" relative="1" as="geometry">
            <mxPoint x="410" y="257.7" as="sourcePoint" />
            <mxPoint x="459" y="258" as="targetPoint" />
          </mxGeometry>
        </mxCell>
        <mxCell id="dMtXOD0O_kABDRuxHPhD-45" value="&lt;span style=&quot;color: rgb(0, 0, 0); font-family: Helvetica; font-style: normal; font-variant-ligatures: normal; font-variant-caps: normal; font-weight: 400; letter-spacing: normal; orphans: 2; text-align: center; text-indent: 0px; text-transform: none; widows: 2; word-spacing: 0px; -webkit-text-stroke-width: 0px; text-decoration-thickness: initial; text-decoration-style: initial; text-decoration-color: initial; float: none; display: inline !important;&quot;&gt;&lt;font style=&quot;font-size: 6px;&quot;&gt;alu_p_w[31:0]&lt;/font&gt;&lt;/span&gt;" style="text;whiteSpace=wrap;html=1;" parent="1" vertex="1">
          <mxGeometry x="409" y="237" width="59" height="15" as="geometry" />
        </mxCell>
        <mxCell id="dMtXOD0O_kABDRuxHPhD-52" value="&lt;span style=&quot;color: rgb(0, 0, 0); font-family: Helvetica; font-style: normal; font-variant-ligatures: normal; font-variant-caps: normal; font-weight: 400; letter-spacing: normal; orphans: 2; text-align: center; text-indent: 0px; text-transform: none; widows: 2; word-spacing: 0px; -webkit-text-stroke-width: 0px; text-decoration-thickness: initial; text-decoration-style: initial; text-decoration-color: initial; float: none; display: inline !important;&quot;&gt;&lt;font style=&quot;font-size: 8px;&quot;&gt;writeback_value_o[31:0]&lt;/font&gt;&lt;/span&gt;" style="text;whiteSpace=wrap;html=1;" parent="1" vertex="1">
          <mxGeometry x="501" y="237" width="60" height="10" as="geometry" />
        </mxCell>
        <mxCell id="dMtXOD0O_kABDRuxHPhD-53" value="" style="endArrow=classic;html=1;rounded=0;strokeWidth=1;edgeStyle=orthogonalEdgeStyle;" parent="1" edge="1">
          <mxGeometry width="50" height="50" relative="1" as="geometry">
            <mxPoint x="500" y="258" as="sourcePoint" />
            <mxPoint x="801" y="41" as="targetPoint" />
            <Array as="points">
              <mxPoint x="1100" y="258" />
              <mxPoint x="1100" y="41" />
            </Array>
          </mxGeometry>
        </mxCell>
        <mxCell id="dMtXOD0O_kABDRuxHPhD-54" value="&lt;font style=&quot;font-size: 15px;&quot;&gt;Branch&lt;/font&gt;" style="rounded=1;whiteSpace=wrap;html=1;" parent="1" vertex="1">
          <mxGeometry x="230" y="94" width="80" height="101" as="geometry" />
        </mxCell>
        <mxCell id="dMtXOD0O_kABDRuxHPhD-68" value="" style="shape=ellipse;fillColor=#000000;strokeColor=none;html=1;sketch=0;strokeWidth=0;" parent="1" vertex="1">
          <mxGeometry x="187" y="367" width="5" height="5" as="geometry" />
        </mxCell>
        <mxCell id="dMtXOD0O_kABDRuxHPhD-72" value="" style="shape=ellipse;fillColor=#000000;strokeColor=none;html=1;sketch=0;strokeWidth=0;" parent="1" vertex="1">
          <mxGeometry x="198" y="466" width="5" height="5" as="geometry" />
        </mxCell>
        <mxCell id="dMtXOD0O_kABDRuxHPhD-76" value="" style="endArrow=classic;html=1;rounded=0;edgeStyle=orthogonalEdgeStyle;entryX=-0.033;entryY=0.648;entryDx=0;entryDy=0;entryPerimeter=0;" parent="1" edge="1">
          <mxGeometry width="50" height="50" relative="1" as="geometry">
            <mxPoint x="181" y="346" as="sourcePoint" />
            <mxPoint x="370.35" y="273.448" as="targetPoint" />
            <Array as="points">
              <mxPoint x="181" y="273" />
            </Array>
          </mxGeometry>
        </mxCell>
        <mxCell id="dMtXOD0O_kABDRuxHPhD-77" value="" style="endArrow=classic;html=1;rounded=0;edgeStyle=orthogonalEdgeStyle;exitX=0.5;exitY=0;exitDx=0;exitDy=0;entryX=-0.011;entryY=0.804;entryDx=0;entryDy=0;entryPerimeter=0;" parent="1" source="dMtXOD0O_kABDRuxHPhD-42" edge="1">
          <mxGeometry width="50" height="50" relative="1" as="geometry">
            <mxPoint x="191" y="361" as="sourcePoint" />
            <mxPoint x="370.45000000000005" y="289.20399999999995" as="targetPoint" />
            <Array as="points">
              <mxPoint x="190" y="361" />
              <mxPoint x="190" y="361" />
              <mxPoint x="190" y="289" />
            </Array>
          </mxGeometry>
        </mxCell>
        <mxCell id="dMtXOD0O_kABDRuxHPhD-83" value="" style="endArrow=classic;html=1;rounded=0;strokeWidth=1;exitX=0.004;exitY=0.167;exitDx=0;exitDy=0;exitPerimeter=0;" parent="1" source="dMtXOD0O_kABDRuxHPhD-87" edge="1">
          <mxGeometry width="50" height="50" relative="1" as="geometry">
            <mxPoint x="311" y="102.70000000000005" as="sourcePoint" />
            <mxPoint x="440" y="103" as="targetPoint" />
          </mxGeometry>
        </mxCell>
        <mxCell id="dMtXOD0O_kABDRuxHPhD-84" value="" style="endArrow=classic;html=1;rounded=0;strokeWidth=1;exitX=0.001;exitY=0.072;exitDx=0;exitDy=0;exitPerimeter=0;" parent="1" source="OMnhECGwcD4HT8epF7S8-11" edge="1">
          <mxGeometry width="50" height="50" relative="1" as="geometry">
            <mxPoint x="311" y="122.70000000000005" as="sourcePoint" />
            <mxPoint x="440" y="123" as="targetPoint" />
          </mxGeometry>
        </mxCell>
        <mxCell id="dMtXOD0O_kABDRuxHPhD-85" value="" style="endArrow=classic;html=1;rounded=0;strokeWidth=1;exitX=1.002;exitY=0.481;exitDx=0;exitDy=0;exitPerimeter=0;" parent="1" source="dMtXOD0O_kABDRuxHPhD-54" edge="1">
          <mxGeometry width="50" height="50" relative="1" as="geometry">
            <mxPoint x="311" y="142.70000000000005" as="sourcePoint" />
            <mxPoint x="440" y="143" as="targetPoint" />
          </mxGeometry>
        </mxCell>
        <mxCell id="dMtXOD0O_kABDRuxHPhD-86" value="&lt;span style=&quot;color: rgb(0, 0, 0); font-family: Helvetica; font-style: normal; font-variant-ligatures: normal; font-variant-caps: normal; font-weight: 400; letter-spacing: normal; orphans: 2; text-align: center; text-indent: 0px; text-transform: none; widows: 2; word-spacing: 0px; -webkit-text-stroke-width: 0px; text-decoration-thickness: initial; text-decoration-style: initial; text-decoration-color: initial; float: none; display: inline !important;&quot;&gt;&lt;font style=&quot;font-size: 8px;&quot;&gt;branch_is_call_r&lt;/font&gt;&lt;/span&gt;" style="text;whiteSpace=wrap;html=1;" parent="1" vertex="1">
          <mxGeometry x="310" y="82" width="30" height="10" as="geometry" />
        </mxCell>
        <mxCell id="dMtXOD0O_kABDRuxHPhD-87" value="&lt;span style=&quot;color: rgb(0, 0, 0); font-family: Helvetica; font-style: normal; font-variant-ligatures: normal; font-variant-caps: normal; font-weight: 400; letter-spacing: normal; orphans: 2; text-align: center; text-indent: 0px; text-transform: none; widows: 2; word-spacing: 0px; -webkit-text-stroke-width: 0px; text-decoration-thickness: initial; text-decoration-style: initial; text-decoration-color: initial; float: none; display: inline !important;&quot;&gt;&lt;font style=&quot;font-size: 8px;&quot;&gt;branch_is_ret_r&lt;/font&gt;&lt;/span&gt;" style="text;whiteSpace=wrap;html=1;" parent="1" vertex="1">
          <mxGeometry x="310" y="102" width="30" height="10" as="geometry" />
        </mxCell>
        <mxCell id="dMtXOD0O_kABDRuxHPhD-90" value="&lt;span style=&quot;color: rgb(0, 0, 0); font-family: Helvetica; font-style: normal; font-variant-ligatures: normal; font-variant-caps: normal; font-weight: 400; letter-spacing: normal; orphans: 2; text-align: center; text-indent: 0px; text-transform: none; widows: 2; word-spacing: 0px; -webkit-text-stroke-width: 0px; text-decoration-thickness: initial; text-decoration-style: initial; text-decoration-color: initial; float: none; display: inline !important;&quot;&gt;&lt;font style=&quot;font-size: 8px;&quot;&gt;branch_target_r[31:0]&lt;/font&gt;&lt;/span&gt;" style="text;whiteSpace=wrap;html=1;" parent="1" vertex="1">
          <mxGeometry x="310" y="141.5" width="40" height="10" as="geometry" />
        </mxCell>
        <mxCell id="dMtXOD0O_kABDRuxHPhD-91" value="" style="endArrow=classic;html=1;rounded=0;strokeWidth=1;" parent="1" edge="1">
          <mxGeometry width="50" height="50" relative="1" as="geometry">
            <mxPoint x="310" y="162.70000000000005" as="sourcePoint" />
            <mxPoint x="440" y="163" as="targetPoint" />
          </mxGeometry>
        </mxCell>
        <mxCell id="dMtXOD0O_kABDRuxHPhD-92" value="" style="endArrow=classic;html=1;rounded=0;strokeWidth=1;" parent="1" edge="1">
          <mxGeometry width="50" height="50" relative="1" as="geometry">
            <mxPoint x="310" y="182.8499999999999" as="sourcePoint" />
            <mxPoint x="440" y="183" as="targetPoint" />
          </mxGeometry>
        </mxCell>
        <mxCell id="dMtXOD0O_kABDRuxHPhD-93" value="&lt;span style=&quot;color: rgb(0, 0, 0); font-family: Helvetica; font-style: normal; font-variant-ligatures: normal; font-variant-caps: normal; font-weight: 400; letter-spacing: normal; orphans: 2; text-align: center; text-indent: 0px; text-transform: none; widows: 2; word-spacing: 0px; -webkit-text-stroke-width: 0px; background-color: rgb(251, 251, 251); text-decoration-thickness: initial; text-decoration-style: initial; text-decoration-color: initial; float: none; display: inline !important;&quot;&gt;&lt;font style=&quot;font-size: 8px;&quot;&gt;branch_taken_r&lt;/font&gt;&lt;/span&gt;" style="text;whiteSpace=wrap;html=1;" parent="1" vertex="1">
          <mxGeometry x="310" y="161.5" width="40" height="10" as="geometry" />
        </mxCell>
        <mxCell id="dMtXOD0O_kABDRuxHPhD-115" value="" style="group" parent="1" vertex="1" connectable="0">
          <mxGeometry x="460" y="145.00333333333333" width="103" height="30" as="geometry" />
        </mxCell>
        <mxCell id="dMtXOD0O_kABDRuxHPhD-124" value="&lt;span style=&quot;color: rgb(0, 0, 0); font-family: Helvetica; font-style: normal; font-variant-ligatures: normal; font-variant-caps: normal; font-weight: 400; letter-spacing: normal; orphans: 2; text-align: center; text-indent: 0px; text-transform: none; widows: 2; word-spacing: 0px; -webkit-text-stroke-width: 0px; background-color: rgb(251, 251, 251); text-decoration-thickness: initial; text-decoration-style: initial; text-decoration-color: initial; float: none; display: inline !important;&quot;&gt;&lt;font style=&quot;font-size: 8px;&quot;&gt;branch_target_o[31:0]&lt;/font&gt;&lt;/span&gt;" style="text;whiteSpace=wrap;html=1;" parent="dMtXOD0O_kABDRuxHPhD-115" vertex="1">
          <mxGeometry x="20" y="-3.0033333333333303" width="82" height="20" as="geometry" />
        </mxCell>
        <mxCell id="dMtXOD0O_kABDRuxHPhD-118" value="" style="endArrow=classic;html=1;rounded=0;strokeWidth=1;edgeStyle=orthogonalEdgeStyle;" parent="1" edge="1">
          <mxGeometry width="50" height="50" relative="1" as="geometry">
            <mxPoint x="480" y="102.70000000000005" as="sourcePoint" />
            <mxPoint x="801" y="91" as="targetPoint" />
            <Array as="points">
              <mxPoint x="1050" y="103" />
              <mxPoint x="1050" y="91" />
            </Array>
          </mxGeometry>
        </mxCell>
        <mxCell id="dMtXOD0O_kABDRuxHPhD-121" value="&lt;span style=&quot;color: rgb(0, 0, 0); font-family: Helvetica; font-style: normal; font-variant-ligatures: normal; font-variant-caps: normal; font-weight: 400; letter-spacing: normal; orphans: 2; text-align: center; text-indent: 0px; text-transform: none; widows: 2; word-spacing: 0px; -webkit-text-stroke-width: 0px; text-decoration-thickness: initial; text-decoration-style: initial; text-decoration-color: initial; float: none; display: inline !important;&quot;&gt;&lt;font style=&quot;font-size: 8px;&quot;&gt;branch_is_call_o&lt;/font&gt;&lt;/span&gt;" style="text;whiteSpace=wrap;html=1;" parent="1" vertex="1">
          <mxGeometry x="480" y="82" width="30" height="10" as="geometry" />
        </mxCell>
        <mxCell id="dMtXOD0O_kABDRuxHPhD-122" value="&lt;span style=&quot;color: rgb(0, 0, 0); font-family: Helvetica; font-style: normal; font-variant-ligatures: normal; font-variant-caps: normal; font-weight: 400; letter-spacing: normal; orphans: 2; text-align: center; text-indent: 0px; text-transform: none; widows: 2; word-spacing: 0px; -webkit-text-stroke-width: 0px; background-color: rgb(251, 251, 251); text-decoration-thickness: initial; text-decoration-style: initial; text-decoration-color: initial; float: none; display: inline !important;&quot;&gt;&lt;font style=&quot;font-size: 8px;&quot;&gt;branch_is_ret_o&lt;/font&gt;&lt;/span&gt;" style="text;whiteSpace=wrap;html=1;" parent="1" vertex="1">
          <mxGeometry x="480" y="102" width="30" height="10" as="geometry" />
        </mxCell>
        <mxCell id="dMtXOD0O_kABDRuxHPhD-123" value="&lt;span style=&quot;color: rgb(0, 0, 0); font-family: Helvetica; font-style: normal; font-variant-ligatures: normal; font-variant-caps: normal; font-weight: 400; letter-spacing: normal; orphans: 2; text-align: center; text-indent: 0px; text-transform: none; widows: 2; word-spacing: 0px; -webkit-text-stroke-width: 0px; background-color: rgb(251, 251, 251); text-decoration-thickness: initial; text-decoration-style: initial; text-decoration-color: initial; float: none; display: inline !important;&quot;&gt;&lt;font style=&quot;font-size: 8px;&quot;&gt;branch_is_jmp_o&lt;/font&gt;&lt;/span&gt;" style="text;whiteSpace=wrap;html=1;" parent="1" vertex="1">
          <mxGeometry x="480" y="121" width="60" height="10" as="geometry" />
        </mxCell>
        <mxCell id="dMtXOD0O_kABDRuxHPhD-127" value="&lt;span style=&quot;color: rgb(0, 0, 0); font-family: Helvetica; font-style: normal; font-variant-ligatures: normal; font-variant-caps: normal; font-weight: 400; letter-spacing: normal; orphans: 2; text-align: center; text-indent: 0px; text-transform: none; widows: 2; word-spacing: 0px; -webkit-text-stroke-width: 0px; background-color: rgb(251, 251, 251); text-decoration-thickness: initial; text-decoration-style: initial; text-decoration-color: initial; float: none; display: inline !important;&quot;&gt;&lt;font style=&quot;font-size: 8px;&quot;&gt;branch_taken_o&lt;/font&gt;&lt;/span&gt;" style="text;whiteSpace=wrap;html=1;" parent="1" vertex="1">
          <mxGeometry x="480" y="161.5" width="40" height="10" as="geometry" />
        </mxCell>
        <mxCell id="c_AszAd_nw9M7-Ro6wcL-3" value="" style="endArrow=classic;html=1;rounded=0;" parent="1" edge="1">
          <mxGeometry width="50" height="50" relative="1" as="geometry">
            <mxPoint x="190" y="369" as="sourcePoint" />
            <mxPoint x="230" y="369" as="targetPoint" />
          </mxGeometry>
        </mxCell>
        <mxCell id="c_AszAd_nw9M7-Ro6wcL-4" value="" style="endArrow=classic;html=1;rounded=0;edgeStyle=orthogonalEdgeStyle;exitX=0.558;exitY=0.173;exitDx=0;exitDy=0;exitPerimeter=0;" parent="1" source="c_AszAd_nw9M7-Ro6wcL-6" edge="1">
          <mxGeometry width="50" height="50" relative="1" as="geometry">
            <mxPoint x="200" y="229" as="sourcePoint" />
            <mxPoint x="230" y="329" as="targetPoint" />
            <Array as="points">
              <mxPoint x="200" y="329" />
            </Array>
          </mxGeometry>
        </mxCell>
        <mxCell id="c_AszAd_nw9M7-Ro6wcL-6" value="" style="shape=ellipse;fillColor=#000000;strokeColor=none;html=1;sketch=0;strokeWidth=0;" parent="1" vertex="1">
          <mxGeometry x="197" y="234.99999999999994" width="5" height="5" as="geometry" />
        </mxCell>
        <mxCell id="c_AszAd_nw9M7-Ro6wcL-7" value="" style="endArrow=classic;html=1;rounded=0;strokeWidth=1;exitX=0.111;exitY=0.767;exitDx=0;exitDy=0;exitPerimeter=0;" parent="1" edge="1">
          <mxGeometry width="50" height="50" relative="1" as="geometry">
            <mxPoint x="309.99" y="340.01" as="sourcePoint" />
            <mxPoint x="440" y="340" as="targetPoint" />
          </mxGeometry>
        </mxCell>
        <mxCell id="c_AszAd_nw9M7-Ro6wcL-8" value="operand_a_e1_q[32:0]" style="text;whiteSpace=wrap;fontSize=6;" parent="1" vertex="1">
          <mxGeometry x="479" y="324" width="80" height="20" as="geometry" />
        </mxCell>
        <mxCell id="c_AszAd_nw9M7-Ro6wcL-11" value="" style="endArrow=classic;html=1;rounded=0;strokeWidth=1;edgeStyle=orthogonalEdgeStyle;" parent="1" edge="1">
          <mxGeometry width="50" height="50" relative="1" as="geometry">
            <mxPoint x="310" y="369" as="sourcePoint" />
            <mxPoint x="410" y="369" as="targetPoint" />
          </mxGeometry>
        </mxCell>
        <mxCell id="c_AszAd_nw9M7-Ro6wcL-12" value="mult_inst_w" style="text;whiteSpace=wrap;fontSize=8;" parent="1" vertex="1">
          <mxGeometry x="311" y="352" width="80" height="20" as="geometry" />
        </mxCell>
        <mxCell id="c_AszAd_nw9M7-Ro6wcL-20" value="" style="endArrow=classic;html=1;rounded=0;strokeWidth=1;exitX=0.012;exitY=-0.012;exitDx=0;exitDy=0;exitPerimeter=0;" parent="1" source="c_AszAd_nw9M7-Ro6wcL-23" edge="1">
          <mxGeometry width="50" height="50" relative="1" as="geometry">
            <mxPoint x="478" y="338.85" as="sourcePoint" />
            <mxPoint x="558" y="339" as="targetPoint" />
          </mxGeometry>
        </mxCell>
        <mxCell id="c_AszAd_nw9M7-Ro6wcL-22" value="" style="endArrow=classic;html=1;rounded=0;strokeWidth=1;exitX=0.111;exitY=0.766;exitDx=0;exitDy=0;exitPerimeter=0;" parent="1" edge="1">
          <mxGeometry width="50" height="50" relative="1" as="geometry">
            <mxPoint x="309.99" y="353.98" as="sourcePoint" />
            <mxPoint x="440" y="354" as="targetPoint" />
          </mxGeometry>
        </mxCell>
        <mxCell id="c_AszAd_nw9M7-Ro6wcL-23" value="operand_b_e1_q[32:0]" style="text;whiteSpace=wrap;fontSize=6;" parent="1" vertex="1">
          <mxGeometry x="479" y="339" width="80" height="20" as="geometry" />
        </mxCell>
        <mxCell id="c_AszAd_nw9M7-Ro6wcL-26" value="" style="endArrow=classic;html=1;rounded=0;strokeWidth=1;" parent="1" edge="1">
          <mxGeometry width="50" height="50" relative="1" as="geometry">
            <mxPoint x="480" y="354" as="sourcePoint" />
            <mxPoint x="558" y="354" as="targetPoint" />
          </mxGeometry>
        </mxCell>
        <mxCell id="dMtXOD0O_kABDRuxHPhD-20" value="" style="shape=trapezoid;perimeter=trapezoidPerimeter;whiteSpace=wrap;html=1;fixedSize=1;rotation=90;size=8.75;" parent="1" vertex="1">
          <mxGeometry x="664" y="344" width="30" height="17" as="geometry" />
        </mxCell>
        <mxCell id="dMtXOD0O_kABDRuxHPhD-21" value="&lt;p style=&quot;line-height: 100%;&quot;&gt;&lt;font face=&quot;Times New Roman&quot; style=&quot;font-size: 6px;&quot;&gt;1&lt;br&gt;0&lt;br&gt;&lt;/font&gt;&lt;/p&gt;" style="text;align=center;html=1;verticalAlign=middle;whiteSpace=wrap;rounded=0;" parent="1" vertex="1">
          <mxGeometry x="670.75" y="336" width="8" height="30" as="geometry" />
        </mxCell>
        <mxCell id="c_AszAd_nw9M7-Ro6wcL-29" value="" style="endArrow=classic;html=1;rounded=0;" parent="1" edge="1">
          <mxGeometry width="50" height="50" relative="1" as="geometry">
            <mxPoint x="386" y="379" as="sourcePoint" />
            <mxPoint x="410" y="379" as="targetPoint" />
          </mxGeometry>
        </mxCell>
        <mxCell id="c_AszAd_nw9M7-Ro6wcL-31" value="" style="endArrow=classic;html=1;rounded=0;" parent="1" edge="1">
          <mxGeometry width="50" height="50" relative="1" as="geometry">
            <mxPoint x="423" y="375" as="sourcePoint" />
            <mxPoint x="440" y="375" as="targetPoint" />
          </mxGeometry>
        </mxCell>
        <mxCell id="c_AszAd_nw9M7-Ro6wcL-32" value="" style="shape=or;whiteSpace=wrap;html=1;" parent="1" vertex="1">
          <mxGeometry x="410" y="364" width="10" height="20" as="geometry" />
        </mxCell>
        <mxCell id="c_AszAd_nw9M7-Ro6wcL-33" value="&lt;span style=&quot;color: rgb(0, 0, 0); font-family: Helvetica; font-style: normal; font-variant-ligatures: normal; font-variant-caps: normal; font-weight: 400; letter-spacing: normal; orphans: 2; text-align: left; text-indent: 0px; text-transform: none; widows: 2; word-spacing: 0px; -webkit-text-stroke-width: 0px; background-color: rgb(251, 251, 251); text-decoration-thickness: initial; text-decoration-style: initial; text-decoration-color: initial; float: none; display: inline !important;&quot;&gt;&lt;font style=&quot;font-size: 7px;&quot;&gt;INST_MUL&lt;/font&gt;&lt;/span&gt;" style="text;whiteSpace=wrap;html=1;" parent="1" vertex="1">
          <mxGeometry x="347" y="366" width="40" height="20" as="geometry" />
        </mxCell>
        <mxCell id="c_AszAd_nw9M7-Ro6wcL-34" value="" style="ellipse;whiteSpace=wrap;html=1;aspect=fixed;" parent="1" vertex="1">
          <mxGeometry x="420" y="373" width="3" height="3" as="geometry" />
        </mxCell>
        <mxCell id="c_AszAd_nw9M7-Ro6wcL-40" value="&lt;div style=&quot;text-align: center;&quot;&gt;&lt;span style=&quot;font-size: 6px;&quot;&gt;mulhi_sel_e1_q&lt;/span&gt;&lt;/div&gt;" style="text;whiteSpace=wrap;html=1;" parent="1" vertex="1">
          <mxGeometry x="479" y="357" width="60" height="10" as="geometry" />
        </mxCell>
        <mxCell id="c_AszAd_nw9M7-Ro6wcL-41" value="" style="endArrow=classic;html=1;rounded=0;strokeWidth=1;edgeStyle=orthogonalEdgeStyle;" parent="1" edge="1">
          <mxGeometry width="50" height="50" relative="1" as="geometry">
            <mxPoint x="480" y="377" as="sourcePoint" />
            <mxPoint x="680" y="363" as="targetPoint" />
            <Array as="points">
              <mxPoint x="680" y="377" />
            </Array>
          </mxGeometry>
        </mxCell>
        <mxCell id="c_AszAd_nw9M7-Ro6wcL-44" value="" style="shape=sumEllipse;perimeter=ellipsePerimeter;whiteSpace=wrap;html=1;backgroundOutline=1;" parent="1" vertex="1">
          <mxGeometry x="555" y="337" width="20" height="20" as="geometry" />
        </mxCell>
        <mxCell id="c_AszAd_nw9M7-Ro6wcL-46" value="" style="endArrow=classic;html=1;rounded=0;" parent="1" edge="1">
          <mxGeometry width="50" height="50" relative="1" as="geometry">
            <mxPoint x="575" y="346" as="sourcePoint" />
            <mxPoint x="670" y="346" as="targetPoint" />
          </mxGeometry>
        </mxCell>
        <mxCell id="c_AszAd_nw9M7-Ro6wcL-47" value="&lt;span style=&quot;color: rgb(0, 0, 0); font-family: Helvetica; font-size: 8px; font-style: normal; font-variant-ligatures: normal; font-variant-caps: normal; font-weight: 400; letter-spacing: normal; orphans: 2; text-align: left; text-indent: 0px; text-transform: none; widows: 2; word-spacing: 0px; -webkit-text-stroke-width: 0px; background-color: rgb(251, 251, 251); text-decoration-thickness: initial; text-decoration-style: initial; text-decoration-color: initial; float: none; display: inline !important;&quot;&gt;mult_result_w[63:32]&lt;/span&gt;" style="text;whiteSpace=wrap;html=1;" parent="1" vertex="1">
          <mxGeometry x="583" y="325" width="80" height="40" as="geometry" />
        </mxCell>
        <mxCell id="c_AszAd_nw9M7-Ro6wcL-50" value="&lt;span style=&quot;color: rgb(0, 0, 0); font-family: Helvetica; font-size: 8px; font-style: normal; font-variant-ligatures: normal; font-variant-caps: normal; font-weight: 400; letter-spacing: normal; orphans: 2; text-align: left; text-indent: 0px; text-transform: none; widows: 2; word-spacing: 0px; -webkit-text-stroke-width: 0px; background-color: rgb(251, 251, 251); text-decoration-thickness: initial; text-decoration-style: initial; text-decoration-color: initial; float: none; display: inline !important;&quot;&gt;result_r[31:0]&lt;/span&gt;" style="text;whiteSpace=wrap;html=1;" parent="1" vertex="1">
          <mxGeometry x="688" y="332" width="50" height="20" as="geometry" />
        </mxCell>
        <mxCell id="c_AszAd_nw9M7-Ro6wcL-52" value="" style="endArrow=classic;html=1;rounded=0;edgeStyle=orthogonalEdgeStyle;" parent="1" edge="1">
          <mxGeometry width="50" height="50" relative="1" as="geometry">
            <mxPoint x="610" y="346" as="sourcePoint" />
            <mxPoint x="670" y="359" as="targetPoint" />
            <Array as="points">
              <mxPoint x="580" y="346" />
              <mxPoint x="580" y="359" />
            </Array>
          </mxGeometry>
        </mxCell>
        <mxCell id="c_AszAd_nw9M7-Ro6wcL-53" value="&lt;span style=&quot;color: rgb(0, 0, 0); font-family: Helvetica; font-size: 8px; font-style: normal; font-variant-ligatures: normal; font-variant-caps: normal; font-weight: 400; letter-spacing: normal; orphans: 2; text-align: left; text-indent: 0px; text-transform: none; widows: 2; word-spacing: 0px; -webkit-text-stroke-width: 0px; background-color: rgb(251, 251, 251); text-decoration-thickness: initial; text-decoration-style: initial; text-decoration-color: initial; float: none; display: inline !important;&quot;&gt;mult_result_w[31:0]&lt;/span&gt;" style="text;whiteSpace=wrap;html=1;" parent="1" vertex="1">
          <mxGeometry x="587" y="338" width="46" height="11" as="geometry" />
        </mxCell>
        <mxCell id="c_AszAd_nw9M7-Ro6wcL-54" value="" style="endArrow=classic;html=1;rounded=0;strokeWidth=1;" parent="1" edge="1">
          <mxGeometry width="50" height="50" relative="1" as="geometry">
            <mxPoint x="688" y="353" as="sourcePoint" />
            <mxPoint x="750" y="353" as="targetPoint" />
          </mxGeometry>
        </mxCell>
        <mxCell id="c_AszAd_nw9M7-Ro6wcL-56" value="" style="endArrow=classic;html=1;rounded=0;strokeWidth=1;" parent="1" edge="1">
          <mxGeometry width="50" height="50" relative="1" as="geometry">
            <mxPoint x="830" y="362" as="sourcePoint" />
            <mxPoint x="880" y="362" as="targetPoint" />
          </mxGeometry>
        </mxCell>
        <mxCell id="c_AszAd_nw9M7-Ro6wcL-59" value="&lt;span style=&quot;color: rgb(0, 0, 0); font-family: Helvetica; font-size: 8px; font-style: normal; font-variant-ligatures: normal; font-variant-caps: normal; font-weight: 400; letter-spacing: normal; orphans: 2; text-align: left; text-indent: 0px; text-transform: none; widows: 2; word-spacing: 0px; -webkit-text-stroke-width: 0px; text-decoration-thickness: initial; text-decoration-style: initial; text-decoration-color: initial; float: none; display: inline !important;&quot;&gt;result_e2_q[31:0]&lt;/span&gt;" style="text;whiteSpace=wrap;html=1;" parent="1" vertex="1">
          <mxGeometry x="866" y="308" width="50" height="20" as="geometry" />
        </mxCell>
        <mxCell id="c_AszAd_nw9M7-Ro6wcL-62" value="" style="group" parent="1" vertex="1" connectable="0">
          <mxGeometry x="750.5" y="344" width="17" height="31.5" as="geometry" />
        </mxCell>
        <mxCell id="c_AszAd_nw9M7-Ro6wcL-60" value="" style="shape=trapezoid;perimeter=trapezoidPerimeter;whiteSpace=wrap;html=1;fixedSize=1;rotation=90;size=8.75;" parent="c_AszAd_nw9M7-Ro6wcL-62" vertex="1">
          <mxGeometry x="-6.5" y="8" width="30" height="17" as="geometry" />
        </mxCell>
        <mxCell id="c_AszAd_nw9M7-Ro6wcL-61" value="&lt;p style=&quot;line-height: 100%;&quot;&gt;&lt;font face=&quot;Times New Roman&quot; style=&quot;font-size: 6px;&quot;&gt;0&lt;br&gt;1&lt;/font&gt;&lt;/p&gt;" style="text;align=center;html=1;verticalAlign=middle;whiteSpace=wrap;rounded=0;" parent="c_AszAd_nw9M7-Ro6wcL-62" vertex="1">
          <mxGeometry x="0.25" width="8" height="30" as="geometry" />
        </mxCell>
        <mxCell id="c_AszAd_nw9M7-Ro6wcL-63" value="" style="endArrow=classic;html=1;rounded=1;strokeWidth=1;" parent="1" edge="1">
          <mxGeometry width="50" height="50" relative="1" as="geometry">
            <mxPoint x="759" y="329" as="sourcePoint" />
            <mxPoint x="759" y="349" as="targetPoint" />
          </mxGeometry>
        </mxCell>
        <mxCell id="c_AszAd_nw9M7-Ro6wcL-64" value="&lt;span style=&quot;color: rgb(0, 0, 0); font-family: Helvetica; font-size: 8px; font-style: normal; font-variant-ligatures: normal; font-variant-caps: normal; font-weight: 400; letter-spacing: normal; orphans: 2; text-align: left; text-indent: 0px; text-transform: none; widows: 2; word-spacing: 0px; -webkit-text-stroke-width: 0px; background-color: rgb(251, 251, 251); text-decoration-thickness: initial; text-decoration-style: initial; text-decoration-color: initial; float: none; display: inline !important;&quot;&gt;hold_i&lt;/span&gt;" style="text;whiteSpace=wrap;html=1;" parent="1" vertex="1">
          <mxGeometry x="749" y="309" width="10" height="20" as="geometry" />
        </mxCell>
        <mxCell id="c_AszAd_nw9M7-Ro6wcL-65" value="" style="endArrow=classic;html=1;rounded=0;strokeWidth=1;" parent="1" edge="1">
          <mxGeometry width="50" height="50" relative="1" as="geometry">
            <mxPoint x="768" y="361" as="sourcePoint" />
            <mxPoint x="790" y="361" as="targetPoint" />
          </mxGeometry>
        </mxCell>
        <mxCell id="c_AszAd_nw9M7-Ro6wcL-66" value="" style="endArrow=classic;html=1;rounded=0;edgeStyle=orthogonalEdgeStyle;exitX=0.432;exitY=0.725;exitDx=0;exitDy=0;exitPerimeter=0;" parent="1" source="cr1yek8JIuXBEfepsls9-21" edge="1">
          <mxGeometry width="50" height="50" relative="1" as="geometry">
            <mxPoint x="850" y="370" as="sourcePoint" />
            <mxPoint x="750" y="369" as="targetPoint" />
            <Array as="points">
              <mxPoint x="850" y="400" />
              <mxPoint x="720" y="400" />
              <mxPoint x="720" y="369" />
            </Array>
          </mxGeometry>
        </mxCell>
        <mxCell id="c_AszAd_nw9M7-Ro6wcL-67" value="" style="endArrow=classic;html=1;rounded=0;strokeWidth=1;" parent="1" edge="1">
          <mxGeometry width="50" height="50" relative="1" as="geometry">
            <mxPoint x="960" y="371" as="sourcePoint" />
            <mxPoint x="1006" y="371" as="targetPoint" />
          </mxGeometry>
        </mxCell>
        <mxCell id="c_AszAd_nw9M7-Ro6wcL-69" value="" style="group" parent="1" vertex="1" connectable="0">
          <mxGeometry x="877.5" y="353" width="17" height="31.5" as="geometry" />
        </mxCell>
        <mxCell id="c_AszAd_nw9M7-Ro6wcL-70" value="" style="shape=trapezoid;perimeter=trapezoidPerimeter;whiteSpace=wrap;html=1;fixedSize=1;rotation=90;size=8.75;" parent="c_AszAd_nw9M7-Ro6wcL-69" vertex="1">
          <mxGeometry x="-6.5" y="8" width="30" height="17" as="geometry" />
        </mxCell>
        <mxCell id="c_AszAd_nw9M7-Ro6wcL-71" value="&lt;p style=&quot;line-height: 100%;&quot;&gt;&lt;font face=&quot;Times New Roman&quot; style=&quot;font-size: 6px;&quot;&gt;0&lt;br&gt;1&lt;/font&gt;&lt;/p&gt;" style="text;align=center;html=1;verticalAlign=middle;whiteSpace=wrap;rounded=0;" parent="c_AszAd_nw9M7-Ro6wcL-69" vertex="1">
          <mxGeometry x="0.25" width="8" height="30" as="geometry" />
        </mxCell>
        <mxCell id="c_AszAd_nw9M7-Ro6wcL-72" value="" style="endArrow=classic;html=1;rounded=1;strokeWidth=1;" parent="1" edge="1">
          <mxGeometry width="50" height="50" relative="1" as="geometry">
            <mxPoint x="886" y="338" as="sourcePoint" />
            <mxPoint x="886" y="358" as="targetPoint" />
          </mxGeometry>
        </mxCell>
        <mxCell id="c_AszAd_nw9M7-Ro6wcL-73" value="&lt;span style=&quot;color: rgb(0, 0, 0); font-family: Helvetica; font-size: 8px; font-style: normal; font-variant-ligatures: normal; font-variant-caps: normal; font-weight: 400; letter-spacing: normal; orphans: 2; text-align: left; text-indent: 0px; text-transform: none; widows: 2; word-spacing: 0px; -webkit-text-stroke-width: 0px; background-color: rgb(251, 251, 251); text-decoration-thickness: initial; text-decoration-style: initial; text-decoration-color: initial; float: none; display: inline !important;&quot;&gt;hold_i&lt;/span&gt;" style="text;whiteSpace=wrap;html=1;" parent="1" vertex="1">
          <mxGeometry x="875" y="320" width="10" height="20" as="geometry" />
        </mxCell>
        <mxCell id="c_AszAd_nw9M7-Ro6wcL-74" value="" style="endArrow=classic;html=1;rounded=0;strokeWidth=1;" parent="1" edge="1">
          <mxGeometry width="50" height="50" relative="1" as="geometry">
            <mxPoint x="895" y="370" as="sourcePoint" />
            <mxPoint x="920" y="370" as="targetPoint" />
          </mxGeometry>
        </mxCell>
        <mxCell id="c_AszAd_nw9M7-Ro6wcL-75" value="" style="endArrow=classic;html=1;rounded=0;edgeStyle=orthogonalEdgeStyle;exitX=0.267;exitY=0.658;exitDx=0;exitDy=0;exitPerimeter=0;" parent="1" edge="1">
          <mxGeometry width="50" height="50" relative="1" as="geometry">
            <mxPoint x="990.335" y="371.28999999999996" as="sourcePoint" />
            <mxPoint x="877" y="378" as="targetPoint" />
            <Array as="points">
              <mxPoint x="990" y="400" />
              <mxPoint x="860" y="400" />
              <mxPoint x="860" y="378" />
            </Array>
          </mxGeometry>
        </mxCell>
        <mxCell id="c_AszAd_nw9M7-Ro6wcL-79" value="&lt;span style=&quot;color: rgb(0, 0, 0); font-family: Helvetica; font-size: 8px; font-style: normal; font-variant-ligatures: normal; font-variant-caps: normal; font-weight: 400; letter-spacing: normal; orphans: 2; text-align: left; text-indent: 0px; text-transform: none; widows: 2; word-spacing: 0px; -webkit-text-stroke-width: 0px; text-decoration-thickness: initial; text-decoration-style: initial; text-decoration-color: initial; float: none; display: inline !important;&quot;&gt;result_e3_q[31:0]&lt;/span&gt;" style="text;whiteSpace=wrap;html=1;" parent="1" vertex="1">
          <mxGeometry x="925" y="379" width="68" height="20" as="geometry" />
        </mxCell>
        <mxCell id="c_AszAd_nw9M7-Ro6wcL-84" value="&lt;p style=&quot;line-height: 100%;&quot;&gt;&lt;font face=&quot;Times New Roman&quot; style=&quot;font-size: 6px;&quot;&gt;1&lt;br&gt;0&lt;br&gt;&lt;/font&gt;&lt;/p&gt;" style="text;align=center;html=1;verticalAlign=middle;whiteSpace=wrap;rounded=0;" parent="1" vertex="1">
          <mxGeometry x="1005" y="347" width="8" height="30" as="geometry" />
        </mxCell>
        <mxCell id="c_AszAd_nw9M7-Ro6wcL-86" value="" style="endArrow=classic;html=1;rounded=0;edgeStyle=orthogonalEdgeStyle;entryX=0.021;entryY=0.182;entryDx=0;entryDy=0;entryPerimeter=0;" parent="1" target="c_AszAd_nw9M7-Ro6wcL-84" edge="1">
          <mxGeometry width="50" height="50" relative="1" as="geometry">
            <mxPoint x="863" y="362" as="sourcePoint" />
            <mxPoint x="977" y="329" as="targetPoint" />
            <Array as="points">
              <mxPoint x="863" y="329" />
              <mxPoint x="933" y="329" />
              <mxPoint x="933" y="353" />
            </Array>
          </mxGeometry>
        </mxCell>
        <mxCell id="c_AszAd_nw9M7-Ro6wcL-87" value="" style="shape=ellipse;fillColor=#000000;strokeColor=none;html=1;sketch=0;strokeWidth=0;" parent="1" vertex="1">
          <mxGeometry x="860" y="358.99999999999994" width="5" height="5" as="geometry" />
        </mxCell>
        <mxCell id="c_AszAd_nw9M7-Ro6wcL-88" value="" style="endArrow=classic;html=1;rounded=1;strokeWidth=1;" parent="1" edge="1">
          <mxGeometry width="50" height="50" relative="1" as="geometry">
            <mxPoint x="1015" y="331" as="sourcePoint" />
            <mxPoint x="1015" y="351" as="targetPoint" />
          </mxGeometry>
        </mxCell>
        <mxCell id="c_AszAd_nw9M7-Ro6wcL-89" value="MULT_STAGES" style="text;whiteSpace=wrap;fontSize=8;" parent="1" vertex="1">
          <mxGeometry x="979" y="316" width="90" height="20" as="geometry" />
        </mxCell>
        <mxCell id="c_AszAd_nw9M7-Ro6wcL-90" value="&lt;span style=&quot;color: rgb(0, 0, 0); font-family: Helvetica; font-style: normal; font-variant-ligatures: normal; font-variant-caps: normal; font-weight: 400; letter-spacing: normal; orphans: 2; text-align: center; text-indent: 0px; text-transform: none; widows: 2; word-spacing: 0px; -webkit-text-stroke-width: 0px; text-decoration-thickness: initial; text-decoration-style: initial; text-decoration-color: initial; float: none; display: inline !important;&quot;&gt;&lt;font style=&quot;font-size: 8px;&quot;&gt;writeback_value_o[31:0]&lt;/font&gt;&lt;/span&gt;" style="text;whiteSpace=wrap;html=1;" parent="1" vertex="1">
          <mxGeometry x="1022" y="340" width="60" height="10" as="geometry" />
        </mxCell>
        <mxCell id="c_AszAd_nw9M7-Ro6wcL-91" value="" style="endArrow=classic;html=1;rounded=0;strokeWidth=1;edgeStyle=orthogonalEdgeStyle;" parent="1" edge="1">
          <mxGeometry width="50" height="50" relative="1" as="geometry">
            <mxPoint x="1022" y="360.85" as="sourcePoint" />
            <mxPoint x="801" y="31" as="targetPoint" />
            <Array as="points">
              <mxPoint x="1112" y="361" />
              <mxPoint x="1112" y="31" />
              <mxPoint x="801" y="31" />
            </Array>
          </mxGeometry>
        </mxCell>
        <mxCell id="c_AszAd_nw9M7-Ro6wcL-92" value="&lt;font style=&quot;font-size: 15px;&quot;&gt;DIV &lt;br&gt;Decode&lt;/font&gt;" style="rounded=1;whiteSpace=wrap;html=1;" parent="1" vertex="1">
          <mxGeometry x="230" y="439" width="80" height="60" as="geometry" />
        </mxCell>
        <mxCell id="c_AszAd_nw9M7-Ro6wcL-95" value="" style="endArrow=classic;html=1;rounded=0;edgeStyle=orthogonalEdgeStyle;" parent="1" edge="1">
          <mxGeometry width="50" height="50" relative="1" as="geometry">
            <mxPoint x="180" y="349" as="sourcePoint" />
            <mxPoint x="440" y="409" as="targetPoint" />
            <Array as="points">
              <mxPoint x="180" y="409" />
            </Array>
          </mxGeometry>
        </mxCell>
        <mxCell id="c_AszAd_nw9M7-Ro6wcL-96" value="" style="endArrow=classic;html=1;rounded=0;edgeStyle=orthogonalEdgeStyle;entryX=0;entryY=0.5;entryDx=0;entryDy=0;" parent="1" target="c_AszAd_nw9M7-Ro6wcL-92" edge="1">
          <mxGeometry width="50" height="50" relative="1" as="geometry">
            <mxPoint x="200" y="329" as="sourcePoint" />
            <mxPoint x="220" y="399" as="targetPoint" />
            <Array as="points">
              <mxPoint x="200" y="469" />
            </Array>
          </mxGeometry>
        </mxCell>
        <mxCell id="c_AszAd_nw9M7-Ro6wcL-97" value="" style="shape=ellipse;fillColor=#000000;strokeColor=none;html=1;sketch=0;strokeWidth=0;" parent="1" vertex="1">
          <mxGeometry x="197" y="325.99999999999994" width="5" height="5" as="geometry" />
        </mxCell>
        <mxCell id="c_AszAd_nw9M7-Ro6wcL-98" value="" style="endArrow=classic;html=1;rounded=0;strokeWidth=1;edgeStyle=orthogonalEdgeStyle;" parent="1" edge="1">
          <mxGeometry width="50" height="50" relative="1" as="geometry">
            <mxPoint x="310" y="460" as="sourcePoint" />
            <mxPoint x="440" y="460" as="targetPoint" />
          </mxGeometry>
        </mxCell>
        <mxCell id="c_AszAd_nw9M7-Ro6wcL-99" value="&lt;font style=&quot;font-size: 8px;&quot;&gt;inst[32:0]&lt;/font&gt;" style="text;html=1;align=center;verticalAlign=middle;resizable=0;points=[];autosize=1;strokeColor=none;fillColor=none;" parent="1" vertex="1">
          <mxGeometry x="299" y="464" width="60" height="30" as="geometry" />
        </mxCell>
        <mxCell id="c_AszAd_nw9M7-Ro6wcL-100" value="" style="endArrow=classic;html=1;rounded=0;strokeWidth=1;exitX=-0.008;exitY=0.282;exitDx=0;exitDy=0;exitPerimeter=0;" parent="1" edge="1">
          <mxGeometry width="50" height="50" relative="1" as="geometry">
            <mxPoint x="310" y="486" as="sourcePoint" />
            <mxPoint x="440" y="486" as="targetPoint" />
          </mxGeometry>
        </mxCell>
        <mxCell id="c_AszAd_nw9M7-Ro6wcL-101" value="" style="endArrow=classic;html=1;rounded=0;strokeWidth=1;exitX=-0.008;exitY=0.282;exitDx=0;exitDy=0;exitPerimeter=0;" parent="1" edge="1">
          <mxGeometry width="50" height="50" relative="1" as="geometry">
            <mxPoint x="310" y="473" as="sourcePoint" />
            <mxPoint x="440" y="473" as="targetPoint" />
          </mxGeometry>
        </mxCell>
        <mxCell id="c_AszAd_nw9M7-Ro6wcL-103" value="&lt;font style=&quot;font-size: 8px;&quot;&gt;signed_operation_w&lt;/font&gt;" style="text;html=1;align=center;verticalAlign=middle;resizable=0;points=[];autosize=1;strokeColor=none;fillColor=none;" parent="1" vertex="1">
          <mxGeometry x="299" y="438" width="100" height="30" as="geometry" />
        </mxCell>
        <mxCell id="c_AszAd_nw9M7-Ro6wcL-104" value="" style="endArrow=classic;html=1;rounded=0;strokeWidth=1;exitX=-0.008;exitY=0.282;exitDx=0;exitDy=0;exitPerimeter=0;" parent="1" edge="1">
          <mxGeometry width="50" height="50" relative="1" as="geometry">
            <mxPoint x="310" y="447" as="sourcePoint" />
            <mxPoint x="440" y="447" as="targetPoint" />
          </mxGeometry>
        </mxCell>
        <mxCell id="c_AszAd_nw9M7-Ro6wcL-105" value="&lt;font style=&quot;font-size: 8px;&quot;&gt;div_operation_w&lt;/font&gt;" style="text;html=1;align=center;verticalAlign=middle;resizable=0;points=[];autosize=1;strokeColor=none;fillColor=none;" parent="1" vertex="1">
          <mxGeometry x="302" y="425" width="80" height="30" as="geometry" />
        </mxCell>
        <mxCell id="c_AszAd_nw9M7-Ro6wcL-108" value="" style="group" parent="1" vertex="1" connectable="0">
          <mxGeometry x="440" y="401" width="80" height="100" as="geometry" />
        </mxCell>
        <mxCell id="c_AszAd_nw9M7-Ro6wcL-106" value="&lt;font style=&quot;font-size: 15px;&quot;&gt;DIV&amp;nbsp;&lt;/font&gt;" style="rounded=1;whiteSpace=wrap;html=1;" parent="c_AszAd_nw9M7-Ro6wcL-108" vertex="1">
          <mxGeometry width="80" height="94.20289855072464" as="geometry" />
        </mxCell>
        <mxCell id="c_AszAd_nw9M7-Ro6wcL-107" value="D" style="text;html=1;align=center;verticalAlign=middle;resizable=0;points=[];autosize=1;strokeColor=none;fillColor=none;" parent="c_AszAd_nw9M7-Ro6wcL-108" vertex="1">
          <mxGeometry x="24" y="69.02358142962417" width="30" height="30" as="geometry" />
        </mxCell>
        <mxCell id="cr1yek8JIuXBEfepsls9-2" value="&lt;font style=&quot;font-size: 15px;&quot;&gt;ALU&lt;/font&gt;" style="rounded=1;whiteSpace=wrap;html=1;" parent="c_AszAd_nw9M7-Ro6wcL-108" vertex="1">
          <mxGeometry x="-69" y="-193" width="39" height="101" as="geometry" />
        </mxCell>
        <mxCell id="cr1yek8JIuXBEfepsls9-3" value="&lt;font style=&quot;font-size: 15px;&quot;&gt;MUL &lt;br&gt;Decode&lt;/font&gt;" style="rounded=1;whiteSpace=wrap;html=1;" parent="c_AszAd_nw9M7-Ro6wcL-108" vertex="1">
          <mxGeometry x="-210" y="-77" width="80" height="60" as="geometry" />
        </mxCell>
        <mxCell id="c_AszAd_nw9M7-Ro6wcL-109" value="" style="endArrow=classic;html=1;rounded=0;strokeWidth=1;exitX=-0.008;exitY=0.282;exitDx=0;exitDy=0;exitPerimeter=0;" parent="1" edge="1">
          <mxGeometry width="50" height="50" relative="1" as="geometry">
            <mxPoint x="520" y="466" as="sourcePoint" />
            <mxPoint x="750" y="466" as="targetPoint" />
          </mxGeometry>
        </mxCell>
        <mxCell id="c_AszAd_nw9M7-Ro6wcL-110" value="" style="endArrow=classic;html=1;rounded=0;strokeWidth=1;exitX=-0.008;exitY=0.282;exitDx=0;exitDy=0;exitPerimeter=0;edgeStyle=orthogonalEdgeStyle;entryX=0.183;entryY=0.384;entryDx=0;entryDy=0;entryPerimeter=0;" parent="1" target="c_AszAd_nw9M7-Ro6wcL-116" edge="1">
          <mxGeometry width="50" height="50" relative="1" as="geometry">
            <mxPoint x="520" y="435" as="sourcePoint" />
            <mxPoint x="760" y="465" as="targetPoint" />
            <Array as="points">
              <mxPoint x="520" y="440" />
              <mxPoint x="761" y="440" />
              <mxPoint x="761" y="465" />
            </Array>
          </mxGeometry>
        </mxCell>
        <mxCell id="c_AszAd_nw9M7-Ro6wcL-111" value="&lt;span style=&quot;color: rgb(0, 0, 0); font-family: Helvetica; font-size: 8px; font-style: normal; font-variant-ligatures: normal; font-variant-caps: normal; font-weight: 400; letter-spacing: normal; orphans: 2; text-align: center; text-indent: 0px; text-transform: none; widows: 2; word-spacing: 0px; -webkit-text-stroke-width: 0px; background-color: rgb(251, 251, 251); text-decoration-thickness: initial; text-decoration-style: initial; text-decoration-color: initial; float: none; display: inline !important;&quot;&gt;div_complete_w&lt;/span&gt;" style="text;whiteSpace=wrap;html=1;" parent="1" vertex="1">
          <mxGeometry x="521" y="418" width="90" height="26" as="geometry" />
        </mxCell>
        <mxCell id="c_AszAd_nw9M7-Ro6wcL-112" value="&lt;span style=&quot;font-size: 8px;&quot;&gt;div_result_r[32:0]&lt;/span&gt;" style="text;whiteSpace=wrap;html=1;" parent="1" vertex="1">
          <mxGeometry x="521" y="445" width="90" height="40" as="geometry" />
        </mxCell>
        <mxCell id="c_AszAd_nw9M7-Ro6wcL-113" value="" style="endArrow=classic;html=1;rounded=0;strokeWidth=1;edgeStyle=orthogonalEdgeStyle;" parent="1" edge="1">
          <mxGeometry width="50" height="50" relative="1" as="geometry">
            <mxPoint x="799" y="477.85" as="sourcePoint" />
            <mxPoint x="801" y="22" as="targetPoint" />
            <Array as="points">
              <mxPoint x="1122" y="478" />
              <mxPoint x="1122" y="22" />
              <mxPoint x="801" y="22" />
            </Array>
          </mxGeometry>
        </mxCell>
        <mxCell id="c_AszAd_nw9M7-Ro6wcL-115" value="" style="group" parent="1" vertex="1" connectable="0">
          <mxGeometry x="750.5" y="460" width="17" height="31.5" as="geometry" />
        </mxCell>
        <mxCell id="c_AszAd_nw9M7-Ro6wcL-116" value="" style="shape=trapezoid;perimeter=trapezoidPerimeter;whiteSpace=wrap;html=1;fixedSize=1;rotation=90;size=8.75;" parent="c_AszAd_nw9M7-Ro6wcL-115" vertex="1">
          <mxGeometry x="-6.5" y="8" width="30" height="17" as="geometry" />
        </mxCell>
        <mxCell id="c_AszAd_nw9M7-Ro6wcL-117" value="&lt;p style=&quot;line-height: 100%;&quot;&gt;&lt;font face=&quot;Times New Roman&quot; style=&quot;font-size: 6px;&quot;&gt;0&lt;br&gt;1&lt;/font&gt;&lt;/p&gt;" style="text;align=center;html=1;verticalAlign=middle;whiteSpace=wrap;rounded=0;" parent="c_AszAd_nw9M7-Ro6wcL-115" vertex="1">
          <mxGeometry x="0.25" width="8" height="30" as="geometry" />
        </mxCell>
        <mxCell id="c_AszAd_nw9M7-Ro6wcL-118" value="" style="endArrow=classic;html=1;rounded=0;strokeWidth=1;" parent="1" edge="1">
          <mxGeometry width="50" height="50" relative="1" as="geometry">
            <mxPoint x="768" y="477" as="sourcePoint" />
            <mxPoint x="790" y="477" as="targetPoint" />
          </mxGeometry>
        </mxCell>
        <mxCell id="c_AszAd_nw9M7-Ro6wcL-119" value="" style="endArrow=classic;html=1;rounded=0;edgeStyle=orthogonalEdgeStyle;" parent="1" edge="1">
          <mxGeometry width="50" height="50" relative="1" as="geometry">
            <mxPoint x="810" y="478" as="sourcePoint" />
            <mxPoint x="750" y="485" as="targetPoint" />
            <Array as="points">
              <mxPoint x="810" y="495" />
              <mxPoint x="720" y="495" />
              <mxPoint x="720" y="485" />
            </Array>
          </mxGeometry>
        </mxCell>
        <mxCell id="c_AszAd_nw9M7-Ro6wcL-121" value="&lt;span style=&quot;color: rgb(0, 0, 0); font-family: Helvetica; font-style: normal; font-variant-ligatures: normal; font-variant-caps: normal; font-weight: 400; letter-spacing: normal; orphans: 2; text-align: center; text-indent: 0px; text-transform: none; widows: 2; word-spacing: 0px; -webkit-text-stroke-width: 0px; text-decoration-thickness: initial; text-decoration-style: initial; text-decoration-color: initial; float: none; display: inline !important;&quot;&gt;&lt;font style=&quot;font-size: 8px;&quot;&gt;writeback_value_o[31:0]&lt;/font&gt;&lt;/span&gt;" style="text;whiteSpace=wrap;html=1;" parent="1" vertex="1">
          <mxGeometry x="800" y="457" width="60" height="10" as="geometry" />
        </mxCell>
        <mxCell id="Wg4XXlyoonWXszrXRrK6-1" value="&lt;font style=&quot;font-size: 15px;&quot;&gt;LSU &lt;br&gt;Decode&lt;/font&gt;" style="rounded=1;whiteSpace=wrap;html=1;" parent="1" vertex="1">
          <mxGeometry x="230" y="534" width="80" height="200" as="geometry" />
        </mxCell>
        <mxCell id="Wg4XXlyoonWXszrXRrK6-2" value="" style="endArrow=classic;html=1;rounded=0;edgeStyle=orthogonalEdgeStyle;" parent="1" edge="1">
          <mxGeometry width="50" height="50" relative="1" as="geometry">
            <mxPoint x="200" y="469" as="sourcePoint" />
            <mxPoint x="230" y="574" as="targetPoint" />
            <Array as="points">
              <mxPoint x="200" y="574" />
            </Array>
          </mxGeometry>
        </mxCell>
        <mxCell id="Wg4XXlyoonWXszrXRrK6-3" value="" style="endArrow=classic;html=1;rounded=0;edgeStyle=orthogonalEdgeStyle;exitX=0.5;exitY=1;exitDx=0;exitDy=0;" parent="1" edge="1">
          <mxGeometry width="50" height="50" relative="1" as="geometry">
            <mxPoint x="189.5" y="381" as="sourcePoint" />
            <mxPoint x="230" y="614" as="targetPoint" />
            <Array as="points">
              <mxPoint x="190" y="614" />
            </Array>
          </mxGeometry>
        </mxCell>
        <mxCell id="Wg4XXlyoonWXszrXRrK6-4" value="" style="endArrow=classic;html=1;rounded=0;edgeStyle=orthogonalEdgeStyle;" parent="1" edge="1">
          <mxGeometry width="50" height="50" relative="1" as="geometry">
            <mxPoint x="180" y="373" as="sourcePoint" />
            <mxPoint x="231" y="655" as="targetPoint" />
            <Array as="points">
              <mxPoint x="180" y="655" />
            </Array>
          </mxGeometry>
        </mxCell>
        <mxCell id="Wg4XXlyoonWXszrXRrK6-5" value="" style="shape=ellipse;fillColor=#000000;strokeColor=none;html=1;sketch=0;strokeWidth=0;" parent="1" vertex="1">
          <mxGeometry x="177" y="406" width="5" height="5" as="geometry" />
        </mxCell>
        <mxCell id="Wg4XXlyoonWXszrXRrK6-6" value="" style="endArrow=classic;html=1;rounded=0;strokeWidth=1;" parent="1" edge="1">
          <mxGeometry width="50" height="50" relative="1" as="geometry">
            <mxPoint x="310" y="694" as="sourcePoint" />
            <mxPoint x="480" y="694" as="targetPoint" />
          </mxGeometry>
        </mxCell>
        <mxCell id="Wg4XXlyoonWXszrXRrK6-8" value="" style="endArrow=classic;html=1;rounded=0;strokeWidth=1;" parent="1" edge="1">
          <mxGeometry width="50" height="50" relative="1" as="geometry">
            <mxPoint x="310" y="714" as="sourcePoint" />
            <mxPoint x="480" y="714" as="targetPoint" />
          </mxGeometry>
        </mxCell>
        <mxCell id="Wg4XXlyoonWXszrXRrK6-10" value="" style="endArrow=classic;html=1;rounded=0;strokeWidth=1;" parent="1" edge="1">
          <mxGeometry width="50" height="50" relative="1" as="geometry">
            <mxPoint x="310" y="674" as="sourcePoint" />
            <mxPoint x="370" y="674" as="targetPoint" />
          </mxGeometry>
        </mxCell>
        <mxCell id="Wg4XXlyoonWXszrXRrK6-11" value="&lt;span style=&quot;color: rgb(0, 0, 0); font-family: Helvetica; font-size: 8px; font-style: normal; font-variant-ligatures: normal; font-variant-caps: normal; font-weight: 400; letter-spacing: normal; orphans: 2; text-align: center; text-indent: 0px; text-transform: none; widows: 2; word-spacing: 0px; -webkit-text-stroke-width: 0px; background-color: rgb(251, 251, 251); text-decoration-thickness: initial; text-decoration-style: initial; text-decoration-color: initial; float: none; display: inline !important;&quot;&gt;store_inst_w&lt;/span&gt;" style="text;whiteSpace=wrap;html=1;" parent="1" vertex="1">
          <mxGeometry x="310" y="653" width="40" height="10" as="geometry" />
        </mxCell>
        <mxCell id="Wg4XXlyoonWXszrXRrK6-12" value="" style="endArrow=classic;html=1;rounded=0;strokeWidth=1;" parent="1" edge="1">
          <mxGeometry width="50" height="50" relative="1" as="geometry">
            <mxPoint x="310" y="594" as="sourcePoint" />
            <mxPoint x="410" y="594" as="targetPoint" />
          </mxGeometry>
        </mxCell>
        <mxCell id="Wg4XXlyoonWXszrXRrK6-13" value="&lt;span style=&quot;color: rgb(0, 0, 0); font-family: Helvetica; font-size: 8px; font-style: normal; font-variant-ligatures: normal; font-variant-caps: normal; font-weight: 400; letter-spacing: normal; orphans: 2; text-align: center; text-indent: 0px; text-transform: none; widows: 2; word-spacing: 0px; -webkit-text-stroke-width: 0px; background-color: rgb(251, 251, 251); text-decoration-thickness: initial; text-decoration-style: initial; text-decoration-color: initial; float: none; display: inline !important;&quot;&gt;{req_lb_w,req_lh_w}&lt;/span&gt;" style="text;whiteSpace=wrap;html=1;" parent="1" vertex="1">
          <mxGeometry x="310" y="573" width="50" as="geometry" />
        </mxCell>
        <mxCell id="Wg4XXlyoonWXszrXRrK6-14" value="" style="endArrow=classic;html=1;rounded=0;strokeWidth=1;" parent="1" edge="1">
          <mxGeometry width="50" height="50" relative="1" as="geometry">
            <mxPoint x="310" y="574" as="sourcePoint" />
            <mxPoint x="410" y="574" as="targetPoint" />
          </mxGeometry>
        </mxCell>
        <mxCell id="Wg4XXlyoonWXszrXRrK6-15" value="&lt;span style=&quot;color: rgb(0, 0, 0); font-family: Helvetica; font-size: 8px; font-style: normal; font-variant-ligatures: normal; font-variant-caps: normal; font-weight: 400; letter-spacing: normal; orphans: 2; text-align: center; text-indent: 0px; text-transform: none; widows: 2; word-spacing: 0px; -webkit-text-stroke-width: 0px; background-color: rgb(251, 251, 251); text-decoration-thickness: initial; text-decoration-style: initial; text-decoration-color: initial; float: none; display: inline !important;&quot;&gt;{req_sb_w,req_sh_w}&lt;/span&gt;" style="text;whiteSpace=wrap;html=1;" parent="1" vertex="1">
          <mxGeometry x="310" y="553" width="50" as="geometry" />
        </mxCell>
        <mxCell id="Wg4XXlyoonWXszrXRrK6-16" value="" style="endArrow=classic;html=1;rounded=0;strokeWidth=1;" parent="1" edge="1">
          <mxGeometry width="50" height="50" relative="1" as="geometry">
            <mxPoint x="310" y="614" as="sourcePoint" />
            <mxPoint x="480" y="614" as="targetPoint" />
          </mxGeometry>
        </mxCell>
        <mxCell id="Wg4XXlyoonWXszrXRrK6-17" value="&lt;span style=&quot;color: rgb(0, 0, 0); font-family: Helvetica; font-size: 8px; font-style: normal; font-variant-ligatures: normal; font-variant-caps: normal; font-weight: 400; letter-spacing: normal; orphans: 2; text-align: center; text-indent: 0px; text-transform: none; widows: 2; word-spacing: 0px; -webkit-text-stroke-width: 0px; background-color: rgb(251, 251, 251); text-decoration-thickness: initial; text-decoration-style: initial; text-decoration-color: initial; float: none; display: inline !important;&quot;&gt;mem_data_r[31:0]&lt;/span&gt;" style="text;whiteSpace=wrap;html=1;" parent="1" vertex="1">
          <mxGeometry x="310" y="593" width="50" as="geometry" />
        </mxCell>
        <mxCell id="Wg4XXlyoonWXszrXRrK6-18" value="" style="endArrow=classic;html=1;rounded=0;strokeWidth=1;" parent="1" edge="1">
          <mxGeometry width="50" height="50" relative="1" as="geometry">
            <mxPoint x="310" y="554" as="sourcePoint" />
            <mxPoint x="480" y="554" as="targetPoint" />
          </mxGeometry>
        </mxCell>
        <mxCell id="Wg4XXlyoonWXszrXRrK6-19" value="&lt;span style=&quot;color: rgb(0, 0, 0); font-family: Helvetica; font-size: 8px; font-style: normal; font-variant-ligatures: normal; font-variant-caps: normal; font-weight: 400; letter-spacing: normal; orphans: 2; text-align: center; text-indent: 0px; text-transform: none; widows: 2; word-spacing: 0px; -webkit-text-stroke-width: 0px; background-color: rgb(251, 251, 251); text-decoration-thickness: initial; text-decoration-style: initial; text-decoration-color: initial; float: none; display: inline !important;&quot;&gt;mem_wr_r[3:0]&lt;/span&gt;" style="text;whiteSpace=wrap;html=1;" parent="1" vertex="1">
          <mxGeometry x="310" y="533" width="50" as="geometry" />
        </mxCell>
        <mxCell id="Wg4XXlyoonWXszrXRrK6-23" value="" style="endArrow=classic;html=1;rounded=0;strokeWidth=1;" parent="1" edge="1">
          <mxGeometry width="50" height="50" relative="1" as="geometry">
            <mxPoint x="310" y="654" as="sourcePoint" />
            <mxPoint x="480" y="654" as="targetPoint" />
          </mxGeometry>
        </mxCell>
        <mxCell id="1Q9LCKEvSBst11ffKUaf-46" value="" style="edgeStyle=orthogonalEdgeStyle;rounded=0;orthogonalLoop=1;jettySize=auto;html=1;" parent="1" source="Wg4XXlyoonWXszrXRrK6-24" target="Wg4XXlyoonWXszrXRrK6-1" edge="1">
          <mxGeometry relative="1" as="geometry" />
        </mxCell>
        <mxCell id="1Q9LCKEvSBst11ffKUaf-47" value="" style="edgeStyle=orthogonalEdgeStyle;rounded=0;orthogonalLoop=1;jettySize=auto;html=1;" parent="1" source="Wg4XXlyoonWXszrXRrK6-24" target="Wg4XXlyoonWXszrXRrK6-1" edge="1">
          <mxGeometry relative="1" as="geometry" />
        </mxCell>
        <mxCell id="1Q9LCKEvSBst11ffKUaf-48" value="" style="edgeStyle=orthogonalEdgeStyle;rounded=0;orthogonalLoop=1;jettySize=auto;html=1;" parent="1" source="Wg4XXlyoonWXszrXRrK6-24" target="Wg4XXlyoonWXszrXRrK6-1" edge="1">
          <mxGeometry relative="1" as="geometry" />
        </mxCell>
        <mxCell id="Wg4XXlyoonWXszrXRrK6-24" value="&lt;span style=&quot;color: rgb(0, 0, 0); font-family: Helvetica; font-size: 8px; font-style: normal; font-variant-ligatures: normal; font-variant-caps: normal; font-weight: 400; letter-spacing: normal; orphans: 2; text-align: center; text-indent: 0px; text-transform: none; widows: 2; word-spacing: 0px; -webkit-text-stroke-width: 0px; background-color: rgb(251, 251, 251); text-decoration-thickness: initial; text-decoration-style: initial; text-decoration-color: initial; float: none; display: inline !important;&quot;&gt;mem_rd_r&lt;/span&gt;" style="text;whiteSpace=wrap;html=1;" parent="1" vertex="1">
          <mxGeometry x="310" y="633" width="50" as="geometry" />
        </mxCell>
        <mxCell id="Wg4XXlyoonWXszrXRrK6-25" value="" style="endArrow=classic;html=1;rounded=0;strokeWidth=1;" parent="1" edge="1">
          <mxGeometry width="50" height="50" relative="1" as="geometry">
            <mxPoint x="310" y="634" as="sourcePoint" />
            <mxPoint x="480" y="634" as="targetPoint" />
          </mxGeometry>
        </mxCell>
        <mxCell id="Wg4XXlyoonWXszrXRrK6-26" value="&lt;span style=&quot;color: rgb(0, 0, 0); font-family: Helvetica; font-size: 8px; font-style: normal; font-variant-ligatures: normal; font-variant-caps: normal; font-weight: 400; letter-spacing: normal; orphans: 2; text-align: center; text-indent: 0px; text-transform: none; widows: 2; word-spacing: 0px; -webkit-text-stroke-width: 0px; background-color: rgb(251, 251, 251); text-decoration-thickness: initial; text-decoration-style: initial; text-decoration-color: initial; float: none; display: inline !important;&quot;&gt;mem_addr_r[31:0]&lt;/span&gt;" style="text;whiteSpace=wrap;html=1;" parent="1" vertex="1">
          <mxGeometry x="310" y="613" width="50" as="geometry" />
        </mxCell>
        <mxCell id="Wg4XXlyoonWXszrXRrK6-40" value="" style="endArrow=classic;html=1;rounded=0;strokeWidth=1;edgeStyle=orthogonalEdgeStyle;" parent="1" edge="1">
          <mxGeometry width="50" height="50" relative="1" as="geometry">
            <mxPoint x="520" y="614" as="sourcePoint" />
            <mxPoint x="621" y="805" as="targetPoint" />
            <Array as="points">
              <mxPoint x="611" y="614" />
              <mxPoint x="611" y="745" />
              <mxPoint x="1120" y="745" />
              <mxPoint x="1120" y="805" />
            </Array>
          </mxGeometry>
        </mxCell>
        <mxCell id="Wg4XXlyoonWXszrXRrK6-41" value="&lt;span style=&quot;color: rgb(0, 0, 0); font-family: Helvetica; font-size: 8px; font-style: normal; font-variant-ligatures: normal; font-variant-caps: normal; font-weight: 400; letter-spacing: normal; orphans: 2; text-align: center; text-indent: 0px; text-transform: none; widows: 2; word-spacing: 0px; -webkit-text-stroke-width: 0px; text-decoration-thickness: initial; text-decoration-style: initial; text-decoration-color: initial; float: none; display: inline !important;&quot;&gt;mem_data_wr_q[31:0]&lt;/span&gt;" style="text;whiteSpace=wrap;html=1;" parent="1" vertex="1">
          <mxGeometry x="528" y="593" width="70" height="10" as="geometry" />
        </mxCell>
        <mxCell id="Wg4XXlyoonWXszrXRrK6-42" value="" style="endArrow=classic;html=1;rounded=0;strokeWidth=1;edgeStyle=orthogonalEdgeStyle;" parent="1" edge="1">
          <mxGeometry width="50" height="50" relative="1" as="geometry">
            <mxPoint x="520" y="634" as="sourcePoint" />
            <mxPoint x="740" y="594" as="targetPoint" />
            <Array as="points">
              <mxPoint x="650" y="634" />
            </Array>
          </mxGeometry>
        </mxCell>
        <mxCell id="Wg4XXlyoonWXszrXRrK6-43" value="&lt;span style=&quot;color: rgb(0, 0, 0); font-family: Helvetica; font-size: 8px; font-style: normal; font-variant-ligatures: normal; font-variant-caps: normal; font-weight: 400; letter-spacing: normal; orphans: 2; text-align: center; text-indent: 0px; text-transform: none; widows: 2; word-spacing: 0px; -webkit-text-stroke-width: 0px; text-decoration-thickness: initial; text-decoration-style: initial; text-decoration-color: initial; float: none; display: inline !important;&quot;&gt;mem_addr_q[31:0]&lt;/span&gt;" style="text;whiteSpace=wrap;html=1;" parent="1" vertex="1">
          <mxGeometry x="528" y="613" width="70" height="10" as="geometry" />
        </mxCell>
        <mxCell id="Wg4XXlyoonWXszrXRrK6-46" value="" style="endArrow=classic;html=1;rounded=0;strokeWidth=1;edgeStyle=orthogonalEdgeStyle;" parent="1" edge="1">
          <mxGeometry width="50" height="50" relative="1" as="geometry">
            <mxPoint x="520" y="654" as="sourcePoint" />
            <mxPoint x="660" y="564" as="targetPoint" />
            <Array as="points">
              <mxPoint x="640" y="654" />
              <mxPoint x="640" y="564" />
            </Array>
          </mxGeometry>
        </mxCell>
        <mxCell id="Wg4XXlyoonWXszrXRrK6-47" value="&lt;span style=&quot;color: rgb(0, 0, 0); font-family: Helvetica; font-size: 8px; font-style: normal; font-variant-ligatures: normal; font-variant-caps: normal; font-weight: 400; letter-spacing: normal; orphans: 2; text-align: center; text-indent: 0px; text-transform: none; widows: 2; word-spacing: 0px; -webkit-text-stroke-width: 0px; text-decoration-thickness: initial; text-decoration-style: initial; text-decoration-color: initial; float: none; display: inline !important;&quot;&gt;mem_rd_q&lt;/span&gt;" style="text;whiteSpace=wrap;html=1;" parent="1" vertex="1">
          <mxGeometry x="528" y="633" width="70" height="10" as="geometry" />
        </mxCell>
        <mxCell id="Wg4XXlyoonWXszrXRrK6-48" value="" style="endArrow=classic;html=1;rounded=0;strokeWidth=1;" parent="1" edge="1">
          <mxGeometry width="50" height="50" relative="1" as="geometry">
            <mxPoint x="520" y="554" as="sourcePoint" />
            <mxPoint x="660" y="554" as="targetPoint" />
          </mxGeometry>
        </mxCell>
        <mxCell id="Wg4XXlyoonWXszrXRrK6-50" value="&lt;span style=&quot;color: rgb(0, 0, 0); font-family: Helvetica; font-size: 8px; font-style: normal; font-variant-ligatures: normal; font-variant-caps: normal; font-weight: 400; letter-spacing: normal; orphans: 2; text-align: center; text-indent: 0px; text-transform: none; widows: 2; word-spacing: 0px; -webkit-text-stroke-width: 0px; text-decoration-thickness: initial; text-decoration-style: initial; text-decoration-color: initial; float: none; display: inline !important;&quot;&gt;mem_wr_q[3:0]&lt;/span&gt;" style="text;whiteSpace=wrap;html=1;" parent="1" vertex="1">
          <mxGeometry x="528" y="533" width="50" as="geometry" />
        </mxCell>
        <mxCell id="Wg4XXlyoonWXszrXRrK6-53" value="" style="endArrow=classic;html=1;rounded=0;strokeWidth=1;edgeStyle=orthogonalEdgeStyle;" parent="1" edge="1">
          <mxGeometry width="50" height="50" relative="1" as="geometry">
            <mxPoint x="520" y="694" as="sourcePoint" />
            <mxPoint x="740" y="574" as="targetPoint" />
            <Array as="points">
              <mxPoint x="630" y="694" />
            </Array>
          </mxGeometry>
        </mxCell>
        <mxCell id="Wg4XXlyoonWXszrXRrK6-54" value="&lt;span style=&quot;color: rgb(0, 0, 0); font-family: Helvetica; font-size: 8px; font-style: normal; font-variant-ligatures: normal; font-variant-caps: normal; font-weight: 400; letter-spacing: normal; orphans: 2; text-align: center; text-indent: 0px; text-transform: none; widows: 2; word-spacing: 0px; -webkit-text-stroke-width: 0px; text-decoration-thickness: initial; text-decoration-style: initial; text-decoration-color: initial; float: none; display: inline !important;&quot;&gt;mem_load_q&lt;/span&gt;" style="text;whiteSpace=wrap;html=1;" parent="1" vertex="1">
          <mxGeometry x="528" y="673" width="50" as="geometry" />
        </mxCell>
        <mxCell id="Wg4XXlyoonWXszrXRrK6-55" value="" style="shape=xor;whiteSpace=wrap;html=1;" parent="1" vertex="1">
          <mxGeometry x="405" y="564" width="30" height="40" as="geometry" />
        </mxCell>
        <mxCell id="Wg4XXlyoonWXszrXRrK6-56" value="" style="endArrow=classic;html=1;rounded=0;strokeWidth=1;exitX=1.009;exitY=0.496;exitDx=0;exitDy=0;exitPerimeter=0;" parent="1" source="Wg4XXlyoonWXszrXRrK6-55" edge="1">
          <mxGeometry width="50" height="50" relative="1" as="geometry">
            <mxPoint x="440" y="584" as="sourcePoint" />
            <mxPoint x="480" y="584" as="targetPoint" />
          </mxGeometry>
        </mxCell>
        <mxCell id="Wg4XXlyoonWXszrXRrK6-59" value="" style="endArrow=classic;html=1;rounded=0;strokeWidth=1;" parent="1" edge="1">
          <mxGeometry width="50" height="50" relative="1" as="geometry">
            <mxPoint x="520" y="584" as="sourcePoint" />
            <mxPoint x="740" y="584" as="targetPoint" />
          </mxGeometry>
        </mxCell>
        <mxCell id="Wg4XXlyoonWXszrXRrK6-60" value="&lt;span style=&quot;color: rgb(0, 0, 0); font-family: Helvetica; font-size: 8px; font-style: normal; font-variant-ligatures: normal; font-variant-caps: normal; font-weight: 400; letter-spacing: normal; orphans: 2; text-align: center; text-indent: 0px; text-transform: none; widows: 2; word-spacing: 0px; -webkit-text-stroke-width: 0px; text-decoration-thickness: initial; text-decoration-style: initial; text-decoration-color: initial; float: none; display: inline !important;&quot;&gt;{mem_xb_w,mem_xh_w}&lt;/span&gt;" style="text;whiteSpace=wrap;html=1;" parent="1" vertex="1">
          <mxGeometry x="527" y="563" width="50" as="geometry" />
        </mxCell>
        <mxCell id="Wg4XXlyoonWXszrXRrK6-63" value="" style="endArrow=classic;html=1;rounded=0;strokeWidth=1;edgeStyle=orthogonalEdgeStyle;" parent="1" edge="1">
          <mxGeometry width="50" height="50" relative="1" as="geometry">
            <mxPoint x="520" y="714" as="sourcePoint" />
            <mxPoint x="740" y="604" as="targetPoint" />
            <Array as="points">
              <mxPoint x="660" y="714" />
            </Array>
          </mxGeometry>
        </mxCell>
        <mxCell id="Wg4XXlyoonWXszrXRrK6-64" value="&lt;span style=&quot;color: rgb(0, 0, 0); font-family: Helvetica; font-size: 8px; font-style: normal; font-variant-ligatures: normal; font-variant-caps: normal; font-weight: 400; letter-spacing: normal; orphans: 2; text-align: center; text-indent: 0px; text-transform: none; widows: 2; word-spacing: 0px; -webkit-text-stroke-width: 0px; text-decoration-thickness: initial; text-decoration-style: initial; text-decoration-color: initial; float: none; display: inline !important;&quot;&gt;mem_ls_q&lt;/span&gt;" style="text;whiteSpace=wrap;html=1;" parent="1" vertex="1">
          <mxGeometry x="528" y="693" width="50" as="geometry" />
        </mxCell>
        <mxCell id="1Q9LCKEvSBst11ffKUaf-1" value="&lt;font style=&quot;font-size: 15px;&quot;&gt;LSU &lt;br&gt;FIFO&lt;/font&gt;" style="rounded=1;whiteSpace=wrap;html=1;" parent="1" vertex="1">
          <mxGeometry x="740" y="531" width="90" height="200" as="geometry" />
        </mxCell>
        <mxCell id="1Q9LCKEvSBst11ffKUaf-2" value="&lt;span style=&quot;color: rgb(0, 0, 0); font-family: Helvetica; font-size: 8px; font-style: normal; font-variant-ligatures: normal; font-variant-caps: normal; font-weight: 400; letter-spacing: normal; orphans: 2; text-align: center; text-indent: 0px; text-transform: none; widows: 2; word-spacing: 0px; -webkit-text-stroke-width: 0px; background-color: rgb(251, 251, 251); text-decoration-thickness: initial; text-decoration-style: initial; text-decoration-color: initial; float: none; display: inline !important;&quot;&gt;data_in_i[35:0]&lt;/span&gt;" style="text;whiteSpace=wrap;html=1;" parent="1" vertex="1">
          <mxGeometry x="740" y="574" width="40" height="6" as="geometry" />
        </mxCell>
        <mxCell id="1Q9LCKEvSBst11ffKUaf-3" value="&lt;span style=&quot;color: rgb(0, 0, 0); font-family: Helvetica; font-size: 8px; font-style: normal; font-variant-ligatures: normal; font-variant-caps: normal; font-weight: 400; letter-spacing: normal; orphans: 2; text-align: center; text-indent: 0px; text-transform: none; widows: 2; word-spacing: 0px; -webkit-text-stroke-width: 0px; background-color: rgb(251, 251, 251); text-decoration-thickness: initial; text-decoration-style: initial; text-decoration-color: initial; float: none; display: inline !important;&quot;&gt;push_i&lt;/span&gt;" style="text;whiteSpace=wrap;html=1;" parent="1" vertex="1">
          <mxGeometry x="740" y="544" width="60" height="20" as="geometry" />
        </mxCell>
        <mxCell id="1Q9LCKEvSBst11ffKUaf-4" value="&lt;span style=&quot;color: rgb(0, 0, 0); font-family: Helvetica; font-size: 8px; font-style: normal; font-variant-ligatures: normal; font-variant-caps: normal; font-weight: 400; letter-spacing: normal; orphans: 2; text-align: center; text-indent: 0px; text-transform: none; widows: 2; word-spacing: 0px; -webkit-text-stroke-width: 0px; background-color: rgb(251, 251, 251); text-decoration-thickness: initial; text-decoration-style: initial; text-decoration-color: initial; float: none; display: inline !important;&quot;&gt;data_out_o[35:0]&lt;/span&gt;" style="text;whiteSpace=wrap;html=1;" parent="1" vertex="1">
          <mxGeometry x="767" y="658" width="20" height="20" as="geometry" />
        </mxCell>
        <mxCell id="1Q9LCKEvSBst11ffKUaf-5" value="" style="shape=xor;whiteSpace=wrap;html=1;" parent="1" vertex="1">
          <mxGeometry x="657" y="549" width="20" height="20" as="geometry" />
        </mxCell>
        <mxCell id="1Q9LCKEvSBst11ffKUaf-7" value="" style="endArrow=classic;html=1;rounded=0;strokeWidth=1;" parent="1" edge="1">
          <mxGeometry width="50" height="50" relative="1" as="geometry">
            <mxPoint x="677" y="559" as="sourcePoint" />
            <mxPoint x="740" y="559" as="targetPoint" />
          </mxGeometry>
        </mxCell>
        <mxCell id="1Q9LCKEvSBst11ffKUaf-9" value="&lt;span style=&quot;color: rgb(0, 0, 0); font-family: Helvetica; font-size: 8px; font-style: normal; font-variant-ligatures: normal; font-variant-caps: normal; font-weight: 400; letter-spacing: normal; orphans: 2; text-align: center; text-indent: 0px; text-transform: none; widows: 2; word-spacing: 0px; -webkit-text-stroke-width: 0px; background-color: rgb(251, 251, 251); text-decoration-thickness: initial; text-decoration-style: initial; text-decoration-color: initial; float: none; display: inline !important;&quot;&gt;pop_i&lt;/span&gt;" style="text;whiteSpace=wrap;html=1;" parent="1" vertex="1">
          <mxGeometry x="740" y="673" width="60" height="20" as="geometry" />
        </mxCell>
        <mxCell id="1Q9LCKEvSBst11ffKUaf-10" value="" style="endArrow=classic;html=1;rounded=0;strokeWidth=1;" parent="1" edge="1">
          <mxGeometry width="50" height="50" relative="1" as="geometry">
            <mxPoint x="690" y="690" as="sourcePoint" />
            <mxPoint x="740" y="690" as="targetPoint" />
          </mxGeometry>
        </mxCell>
        <mxCell id="1Q9LCKEvSBst11ffKUaf-12" value="" style="endArrow=classic;html=1;rounded=0;strokeWidth=1;" parent="1" edge="1">
          <mxGeometry width="50" height="50" relative="1" as="geometry">
            <mxPoint x="830" y="654" as="sourcePoint" />
            <mxPoint x="900" y="654" as="targetPoint" />
          </mxGeometry>
        </mxCell>
        <mxCell id="1Q9LCKEvSBst11ffKUaf-13" value="" style="endArrow=classic;html=1;rounded=0;strokeWidth=1;" parent="1" edge="1">
          <mxGeometry width="50" height="50" relative="1" as="geometry">
            <mxPoint x="830" y="674" as="sourcePoint" />
            <mxPoint x="900" y="674" as="targetPoint" />
          </mxGeometry>
        </mxCell>
        <mxCell id="1Q9LCKEvSBst11ffKUaf-14" value="" style="endArrow=classic;html=1;rounded=0;strokeWidth=1;" parent="1" edge="1">
          <mxGeometry width="50" height="50" relative="1" as="geometry">
            <mxPoint x="830" y="694" as="sourcePoint" />
            <mxPoint x="900" y="694" as="targetPoint" />
          </mxGeometry>
        </mxCell>
        <mxCell id="1Q9LCKEvSBst11ffKUaf-15" value="" style="endArrow=classic;html=1;rounded=0;strokeWidth=1;" parent="1" edge="1">
          <mxGeometry width="50" height="50" relative="1" as="geometry">
            <mxPoint x="830" y="714" as="sourcePoint" />
            <mxPoint x="900" y="714" as="targetPoint" />
          </mxGeometry>
        </mxCell>
        <mxCell id="1Q9LCKEvSBst11ffKUaf-16" value="" style="endArrow=classic;html=1;rounded=0;strokeWidth=1;" parent="1" edge="1">
          <mxGeometry width="50" height="50" relative="1" as="geometry">
            <mxPoint x="830" y="634" as="sourcePoint" />
            <mxPoint x="900" y="634" as="targetPoint" />
          </mxGeometry>
        </mxCell>
        <mxCell id="1Q9LCKEvSBst11ffKUaf-17" value="&lt;span style=&quot;color: rgb(0, 0, 0); font-family: Helvetica; font-size: 8px; font-style: normal; font-variant-ligatures: normal; font-variant-caps: normal; font-weight: 400; letter-spacing: normal; orphans: 2; text-align: center; text-indent: 0px; text-transform: none; widows: 2; word-spacing: 0px; -webkit-text-stroke-width: 0px; background-color: rgb(251, 251, 251); text-decoration-thickness: initial; text-decoration-style: initial; text-decoration-color: initial; float: none; display: inline !important;&quot;&gt;addr_lsb_r[1:0]&lt;/span&gt;" style="text;whiteSpace=wrap;html=1;" parent="1" vertex="1">
          <mxGeometry x="830" y="613" width="70" height="13" as="geometry" />
        </mxCell>
        <mxCell id="1Q9LCKEvSBst11ffKUaf-21" value="&lt;span style=&quot;color: rgb(0, 0, 0); font-family: Helvetica; font-size: 8px; font-style: normal; font-variant-ligatures: normal; font-variant-caps: normal; font-weight: 400; letter-spacing: normal; orphans: 2; text-align: center; text-indent: 0px; text-transform: none; widows: 2; word-spacing: 0px; -webkit-text-stroke-width: 0px; background-color: rgb(251, 251, 251); text-decoration-thickness: initial; text-decoration-style: initial; text-decoration-color: initial; float: none; display: inline !important;&quot;&gt;load_byte_r&lt;/span&gt;" style="text;whiteSpace=wrap;html=1;" parent="1" vertex="1">
          <mxGeometry x="831" y="633" width="70" height="10" as="geometry" />
        </mxCell>
        <mxCell id="1Q9LCKEvSBst11ffKUaf-22" value="&lt;span style=&quot;color: rgb(0, 0, 0); font-family: Helvetica; font-size: 8px; font-style: normal; font-variant-ligatures: normal; font-variant-caps: normal; font-weight: 400; letter-spacing: normal; orphans: 2; text-align: center; text-indent: 0px; text-transform: none; widows: 2; word-spacing: 0px; -webkit-text-stroke-width: 0px; background-color: rgb(251, 251, 251); text-decoration-thickness: initial; text-decoration-style: initial; text-decoration-color: initial; float: none; display: inline !important;&quot;&gt;load_half_r&lt;/span&gt;" style="text;whiteSpace=wrap;html=1;" parent="1" vertex="1">
          <mxGeometry x="831" y="652" width="70" height="10" as="geometry" />
        </mxCell>
        <mxCell id="1Q9LCKEvSBst11ffKUaf-23" value="&lt;span style=&quot;color: rgb(0, 0, 0); font-family: Helvetica; font-size: 8px; font-style: normal; font-variant-ligatures: normal; font-variant-caps: normal; font-weight: 400; letter-spacing: normal; orphans: 2; text-align: center; text-indent: 0px; text-transform: none; widows: 2; word-spacing: 0px; -webkit-text-stroke-width: 0px; background-color: rgb(251, 251, 251); text-decoration-thickness: initial; text-decoration-style: initial; text-decoration-color: initial; float: none; display: inline !important;&quot;&gt;load_signed_r&lt;/span&gt;" style="text;whiteSpace=wrap;html=1;" parent="1" vertex="1">
          <mxGeometry x="831" y="673" width="70" height="10" as="geometry" />
        </mxCell>
        <mxCell id="1Q9LCKEvSBst11ffKUaf-24" value="&lt;span style=&quot;color: rgb(0, 0, 0); font-family: Helvetica; font-size: 8px; font-style: normal; font-variant-ligatures: normal; font-variant-caps: normal; font-weight: 400; letter-spacing: normal; orphans: 2; text-align: center; text-indent: 0px; text-transform: none; widows: 2; word-spacing: 0px; -webkit-text-stroke-width: 0px; background-color: rgb(251, 251, 251); text-decoration-thickness: initial; text-decoration-style: initial; text-decoration-color: initial; float: none; display: inline !important;&quot;&gt;mem_ask_i&lt;/span&gt;" style="text;whiteSpace=wrap;html=1;" parent="1" vertex="1">
          <mxGeometry x="687" y="668" width="70" height="10" as="geometry" />
        </mxCell>
        <mxCell id="1Q9LCKEvSBst11ffKUaf-25" value="&lt;span style=&quot;color: rgb(0, 0, 0); font-family: Helvetica; font-size: 8px; font-style: normal; font-variant-ligatures: normal; font-variant-caps: normal; font-weight: 400; letter-spacing: normal; orphans: 2; text-align: center; text-indent: 0px; text-transform: none; widows: 2; word-spacing: 0px; -webkit-text-stroke-width: 0px; background-color: rgb(251, 251, 251); text-decoration-thickness: initial; text-decoration-style: initial; text-decoration-color: initial; float: none; display: inline !important;&quot;&gt;resp_load_w&lt;/span&gt;" style="text;whiteSpace=wrap;html=1;" parent="1" vertex="1">
          <mxGeometry x="831" y="693" width="50" as="geometry" />
        </mxCell>
        <mxCell id="1Q9LCKEvSBst11ffKUaf-30" value="" style="endArrow=classic;html=1;rounded=0;edgeStyle=orthogonalEdgeStyle;entryX=0;entryY=0.083;entryDx=0;entryDy=0;entryPerimeter=0;exitX=0;exitY=0.5;exitDx=0;exitDy=0;" parent="1" source="1Q9LCKEvSBst11ffKUaf-65" target="1Q9LCKEvSBst11ffKUaf-32" edge="1">
          <mxGeometry width="50" height="50" relative="1" as="geometry">
            <mxPoint x="51" y="865" as="sourcePoint" />
            <mxPoint x="840" y="614" as="targetPoint" />
            <Array as="points">
              <mxPoint x="501" y="805" />
              <mxPoint x="51" y="805" />
              <mxPoint x="51" y="524" />
              <mxPoint x="840" y="524" />
              <mxPoint x="840" y="614" />
            </Array>
          </mxGeometry>
        </mxCell>
        <mxCell id="1Q9LCKEvSBst11ffKUaf-31" value="mem_data_rd_i[31:0]" style="text;whiteSpace=wrap;fontSize=10;" parent="1" vertex="1">
          <mxGeometry x="745" y="502" width="100" height="20" as="geometry" />
        </mxCell>
        <mxCell id="1Q9LCKEvSBst11ffKUaf-32" value="&lt;font style=&quot;font-size: 15px;&quot;&gt;LOAD&lt;br&gt;Response&lt;/font&gt;" style="rounded=1;whiteSpace=wrap;html=1;" parent="1" vertex="1">
          <mxGeometry x="900" y="604" width="80" height="120" as="geometry" />
        </mxCell>
        <mxCell id="1Q9LCKEvSBst11ffKUaf-33" value="&lt;span style=&quot;color: rgb(0, 0, 0); font-family: Helvetica; font-style: normal; font-variant-ligatures: normal; font-variant-caps: normal; font-weight: 400; letter-spacing: normal; orphans: 2; text-align: center; text-indent: 0px; text-transform: none; widows: 2; word-spacing: 0px; -webkit-text-stroke-width: 0px; text-decoration-thickness: initial; text-decoration-style: initial; text-decoration-color: initial; float: none; display: inline !important;&quot;&gt;&lt;font style=&quot;font-size: 8px;&quot;&gt;writeback_value_o[31:0]&lt;/font&gt;&lt;/span&gt;" style="text;whiteSpace=wrap;html=1;" parent="1" vertex="1">
          <mxGeometry x="980" y="642" width="60" height="10" as="geometry" />
        </mxCell>
        <mxCell id="1Q9LCKEvSBst11ffKUaf-34" value="" style="endArrow=classic;html=1;rounded=0;strokeWidth=1;edgeStyle=orthogonalEdgeStyle;" parent="1" edge="1">
          <mxGeometry width="50" height="50" relative="1" as="geometry">
            <mxPoint x="980" y="663.85" as="sourcePoint" />
            <mxPoint x="801" y="11" as="targetPoint" />
            <Array as="points">
              <mxPoint x="1132" y="664" />
              <mxPoint x="1132" y="11" />
            </Array>
          </mxGeometry>
        </mxCell>
        <mxCell id="1Q9LCKEvSBst11ffKUaf-36" value="" style="endArrow=classic;html=1;rounded=0;edgeStyle=orthogonalEdgeStyle;" parent="1" edge="1">
          <mxGeometry width="50" height="50" relative="1" as="geometry">
            <mxPoint x="622" y="633" as="sourcePoint" />
            <mxPoint x="622" y="815" as="targetPoint" />
            <Array as="points">
              <mxPoint x="622" y="735" />
              <mxPoint x="1131" y="735" />
              <mxPoint x="1131" y="815" />
            </Array>
          </mxGeometry>
        </mxCell>
        <mxCell id="1Q9LCKEvSBst11ffKUaf-37" value="" style="shape=ellipse;fillColor=#000000;strokeColor=none;html=1;sketch=0;strokeWidth=0;" parent="1" vertex="1">
          <mxGeometry x="619" y="631" width="5" height="5" as="geometry" />
        </mxCell>
        <mxCell id="1Q9LCKEvSBst11ffKUaf-38" value="&lt;span style=&quot;color: rgb(0, 0, 0); font-family: Helvetica; font-size: 8px; font-style: normal; font-variant-ligatures: normal; font-variant-caps: normal; font-weight: 400; letter-spacing: normal; orphans: 2; text-align: center; text-indent: 0px; text-transform: none; widows: 2; word-spacing: 0px; -webkit-text-stroke-width: 0px; text-decoration-thickness: initial; text-decoration-style: initial; text-decoration-color: initial; float: none; display: inline !important;&quot;&gt;mem_addr_o[31:0]&lt;/span&gt;" style="text;whiteSpace=wrap;html=1;" parent="1" vertex="1">
          <mxGeometry x="630" y="794" width="70" height="10" as="geometry" />
        </mxCell>
        <mxCell id="1Q9LCKEvSBst11ffKUaf-42" value="" style="shape=ellipse;fillColor=#000000;strokeColor=none;html=1;sketch=0;strokeWidth=0;" parent="1" vertex="1">
          <mxGeometry x="457" y="552" width="5" height="5" as="geometry" />
        </mxCell>
        <mxCell id="1Q9LCKEvSBst11ffKUaf-43" value="" style="endArrow=classic;html=1;rounded=0;edgeStyle=orthogonalEdgeStyle;" parent="1" edge="1">
          <mxGeometry width="50" height="50" relative="1" as="geometry">
            <mxPoint x="450" y="655" as="sourcePoint" />
            <mxPoint x="621" y="785" as="targetPoint" />
            <Array as="points">
              <mxPoint x="450" y="765" />
              <mxPoint x="1100" y="765" />
              <mxPoint x="1100" y="785" />
            </Array>
          </mxGeometry>
        </mxCell>
        <mxCell id="1Q9LCKEvSBst11ffKUaf-44" value="" style="endArrow=classic;html=1;rounded=0;edgeStyle=orthogonalEdgeStyle;" parent="1" edge="1">
          <mxGeometry width="50" height="50" relative="1" as="geometry">
            <mxPoint x="460" y="554" as="sourcePoint" />
            <mxPoint x="621" y="795" as="targetPoint" />
            <Array as="points">
              <mxPoint x="460" y="755" />
              <mxPoint x="1110" y="755" />
              <mxPoint x="1110" y="795" />
            </Array>
          </mxGeometry>
        </mxCell>
        <mxCell id="1Q9LCKEvSBst11ffKUaf-45" value="" style="shape=ellipse;fillColor=#000000;strokeColor=none;html=1;sketch=0;strokeWidth=0;" parent="1" vertex="1">
          <mxGeometry x="447" y="651" width="5" height="5" as="geometry" />
        </mxCell>
        <mxCell id="1Q9LCKEvSBst11ffKUaf-55" value="" style="endArrow=classic;html=1;rounded=0;edgeStyle=orthogonalEdgeStyle;entryX=0;entryY=0.891;entryDx=0;entryDy=0;entryPerimeter=0;" parent="1" target="dMtXOD0O_kABDRuxHPhD-54" edge="1">
          <mxGeometry width="50" height="50" relative="1" as="geometry">
            <mxPoint x="190" y="294" as="sourcePoint" />
            <mxPoint x="190" y="184" as="targetPoint" />
            <Array as="points">
              <mxPoint x="190" y="184" />
            </Array>
          </mxGeometry>
        </mxCell>
        <mxCell id="1Q9LCKEvSBst11ffKUaf-56" value="" style="shape=ellipse;fillColor=#000000;strokeColor=none;html=1;sketch=0;strokeWidth=0;" parent="1" vertex="1">
          <mxGeometry x="187" y="286.99999999999994" width="5" height="5" as="geometry" />
        </mxCell>
        <mxCell id="1Q9LCKEvSBst11ffKUaf-57" value="" style="shape=ellipse;fillColor=#000000;strokeColor=none;html=1;sketch=0;strokeWidth=0;" parent="1" vertex="1">
          <mxGeometry x="178" y="270.99999999999994" width="5" height="5" as="geometry" />
        </mxCell>
        <mxCell id="1Q9LCKEvSBst11ffKUaf-58" value="" style="endArrow=classic;html=1;rounded=0;edgeStyle=orthogonalEdgeStyle;entryX=0;entryY=0.792;entryDx=0;entryDy=0;entryPerimeter=0;" parent="1" edge="1">
          <mxGeometry width="50" height="50" relative="1" as="geometry">
            <mxPoint x="181" y="274" as="sourcePoint" />
            <mxPoint x="231" y="173.99199999999996" as="targetPoint" />
            <Array as="points">
              <mxPoint x="181" y="174" />
            </Array>
          </mxGeometry>
        </mxCell>
        <mxCell id="1Q9LCKEvSBst11ffKUaf-59" value="" style="endArrow=classic;html=1;rounded=0;edgeStyle=orthogonalEdgeStyle;entryX=0;entryY=0.693;entryDx=0;entryDy=0;entryPerimeter=0;" parent="1" target="dMtXOD0O_kABDRuxHPhD-54" edge="1">
          <mxGeometry width="50" height="50" relative="1" as="geometry">
            <mxPoint x="170" y="238.01" as="sourcePoint" />
            <mxPoint x="220" y="158.00199999999995" as="targetPoint" />
            <Array as="points">
              <mxPoint x="170" y="164" />
            </Array>
          </mxGeometry>
        </mxCell>
        <mxCell id="1Q9LCKEvSBst11ffKUaf-60" value="" style="shape=ellipse;fillColor=#000000;strokeColor=none;html=1;sketch=0;strokeWidth=0;" parent="1" vertex="1">
          <mxGeometry x="167" y="234.99999999999994" width="5" height="5" as="geometry" />
        </mxCell>
        <mxCell id="1Q9LCKEvSBst11ffKUaf-65" value="&lt;font style=&quot;font-size: 20px;&quot;&gt;MMU&lt;/font&gt;" style="rounded=0;whiteSpace=wrap;html=1;" parent="1" vertex="1">
          <mxGeometry x="501" y="777" width="120" height="47" as="geometry" />
        </mxCell>
        <mxCell id="1Q9LCKEvSBst11ffKUaf-66" value="" style="endArrow=classic;html=1;rounded=0;strokeWidth=1;edgeStyle=orthogonalEdgeStyle;" parent="1" edge="1">
          <mxGeometry width="50" height="50" relative="1" as="geometry">
            <mxPoint x="581" y="71" as="sourcePoint" />
            <mxPoint x="230" y="132" as="targetPoint" />
            <Array as="points">
              <mxPoint x="591" y="71" />
              <mxPoint x="591" y="50" />
              <mxPoint x="81" y="50" />
              <mxPoint x="81" y="132" />
            </Array>
          </mxGeometry>
        </mxCell>
        <mxCell id="1Q9LCKEvSBst11ffKUaf-67" value="" style="endArrow=classic;html=1;rounded=0;strokeWidth=1;edgeStyle=orthogonalEdgeStyle;" parent="1" edge="1">
          <mxGeometry width="50" height="50" relative="1" as="geometry">
            <mxPoint x="591" y="61" as="sourcePoint" />
            <mxPoint x="230" y="152" as="targetPoint" />
            <Array as="points">
              <mxPoint x="591" y="40" />
              <mxPoint x="71" y="40" />
              <mxPoint x="71" y="152" />
            </Array>
          </mxGeometry>
        </mxCell>
        <mxCell id="1Q9LCKEvSBst11ffKUaf-68" value="" style="endArrow=classic;html=1;rounded=0;strokeWidth=1;edgeStyle=orthogonalEdgeStyle;entryX=0.013;entryY=0.318;entryDx=0;entryDy=0;entryPerimeter=0;" parent="1" target="c_AszAd_nw9M7-Ro6wcL-106" edge="1">
          <mxGeometry width="50" height="50" relative="1" as="geometry">
            <mxPoint x="591" y="31" as="sourcePoint" />
            <mxPoint x="431" y="431" as="targetPoint" />
            <Array as="points">
              <mxPoint x="581" y="31" />
              <mxPoint x="581" y="10" />
              <mxPoint x="41" y="10" />
              <mxPoint x="41" y="431" />
            </Array>
          </mxGeometry>
        </mxCell>
        <mxCell id="1Q9LCKEvSBst11ffKUaf-69" value="" style="endArrow=classic;html=1;rounded=0;strokeWidth=1;edgeStyle=orthogonalEdgeStyle;" parent="1" edge="1">
          <mxGeometry width="50" height="50" relative="1" as="geometry">
            <mxPoint x="480" y="122.70000000000005" as="sourcePoint" />
            <mxPoint x="801" y="81" as="targetPoint" />
            <Array as="points">
              <mxPoint x="1060" y="123" />
              <mxPoint x="1060" y="81" />
            </Array>
          </mxGeometry>
        </mxCell>
        <mxCell id="1Q9LCKEvSBst11ffKUaf-70" value="" style="endArrow=classic;html=1;rounded=0;strokeWidth=1;edgeStyle=orthogonalEdgeStyle;" parent="1" edge="1">
          <mxGeometry width="50" height="50" relative="1" as="geometry">
            <mxPoint x="480" y="141.70000000000005" as="sourcePoint" />
            <mxPoint x="801" y="71" as="targetPoint" />
            <Array as="points">
              <mxPoint x="1070" y="142" />
              <mxPoint x="1070" y="71" />
            </Array>
          </mxGeometry>
        </mxCell>
        <mxCell id="1Q9LCKEvSBst11ffKUaf-71" value="" style="endArrow=classic;html=1;rounded=0;strokeWidth=1;edgeStyle=orthogonalEdgeStyle;" parent="1" edge="1">
          <mxGeometry width="50" height="50" relative="1" as="geometry">
            <mxPoint x="480" y="163" as="sourcePoint" />
            <mxPoint x="801" y="61" as="targetPoint" />
            <Array as="points">
              <mxPoint x="1080" y="163" />
              <mxPoint x="1080" y="61" />
            </Array>
          </mxGeometry>
        </mxCell>
        <mxCell id="1Q9LCKEvSBst11ffKUaf-72" value="" style="endArrow=classic;html=1;rounded=0;strokeWidth=1;edgeStyle=orthogonalEdgeStyle;" parent="1" edge="1">
          <mxGeometry width="50" height="50" relative="1" as="geometry">
            <mxPoint x="480" y="183" as="sourcePoint" />
            <mxPoint x="801" y="51" as="targetPoint" />
            <Array as="points">
              <mxPoint x="480" y="183" />
              <mxPoint x="1090" y="183" />
              <mxPoint x="1090" y="51" />
            </Array>
          </mxGeometry>
        </mxCell>
        <mxCell id="OMnhECGwcD4HT8epF7S8-5" value="&lt;font style=&quot;font-size: 8px;&quot;&gt;operand_b_r[32:0]&lt;/font&gt;" style="text;html=1;align=center;verticalAlign=middle;resizable=0;points=[];autosize=1;strokeColor=none;fillColor=none;" parent="1" vertex="1">
          <mxGeometry x="300" y="332" width="90" height="30" as="geometry" />
        </mxCell>
        <mxCell id="OMnhECGwcD4HT8epF7S8-6" value="&lt;font style=&quot;font-size: 8px;&quot;&gt;operand_a_r[32:0]&lt;/font&gt;" style="text;html=1;align=center;verticalAlign=middle;resizable=0;points=[];autosize=1;strokeColor=none;fillColor=none;" parent="1" vertex="1">
          <mxGeometry x="300" y="318" width="90" height="30" as="geometry" />
        </mxCell>
        <mxCell id="OMnhECGwcD4HT8epF7S8-9" value="&lt;font style=&quot;font-size: 8px;&quot;&gt;div_rem_inst_w&lt;/font&gt;" style="text;html=1;align=center;verticalAlign=middle;resizable=0;points=[];autosize=1;strokeColor=none;fillColor=none;" parent="1" vertex="1">
          <mxGeometry x="300" y="451" width="80" height="30" as="geometry" />
        </mxCell>
        <mxCell id="OMnhECGwcD4HT8epF7S8-11" value="&lt;span style=&quot;color: rgb(0, 0, 0); font-family: Helvetica; font-style: normal; font-variant-ligatures: normal; font-variant-caps: normal; font-weight: 400; letter-spacing: normal; orphans: 2; text-align: center; text-indent: 0px; text-transform: none; widows: 2; word-spacing: 0px; -webkit-text-stroke-width: 0px; text-decoration-thickness: initial; text-decoration-style: initial; text-decoration-color: initial; float: none; display: inline !important;&quot;&gt;&lt;font style=&quot;font-size: 8px;&quot;&gt;branch_is_jmp_r&lt;/font&gt;&lt;/span&gt;" style="text;whiteSpace=wrap;html=1;" parent="1" vertex="1">
          <mxGeometry x="310" y="122" width="50" height="10" as="geometry" />
        </mxCell>
        <mxCell id="UMMzW7Fb4Soxe8Ajp6Zn-1" value="lsu_in_data_rd_o[31:0]" style="text;whiteSpace=wrap;fontSize=10;" parent="1" vertex="1">
          <mxGeometry x="392" y="784" width="100" height="20" as="geometry" />
        </mxCell>
        <mxCell id="cr1yek8JIuXBEfepsls9-4" value="D" style="rounded=1;whiteSpace=wrap;html=1;" parent="1" vertex="1">
          <mxGeometry x="440" y="114" width="40" height="17" as="geometry" />
        </mxCell>
        <mxCell id="cr1yek8JIuXBEfepsls9-5" value="D" style="rounded=1;whiteSpace=wrap;html=1;" parent="1" vertex="1">
          <mxGeometry x="440" y="134" width="40" height="17" as="geometry" />
        </mxCell>
        <mxCell id="cr1yek8JIuXBEfepsls9-6" value="D" style="rounded=1;whiteSpace=wrap;html=1;" parent="1" vertex="1">
          <mxGeometry x="440" y="154" width="40" height="17" as="geometry" />
        </mxCell>
        <mxCell id="cr1yek8JIuXBEfepsls9-7" value="D" style="rounded=1;whiteSpace=wrap;html=1;" parent="1" vertex="1">
          <mxGeometry x="440" y="174" width="40" height="17" as="geometry" />
        </mxCell>
        <mxCell id="cr1yek8JIuXBEfepsls9-8" value="D" style="rounded=1;whiteSpace=wrap;html=1;" parent="1" vertex="1">
          <mxGeometry x="440" y="94" width="40" height="17" as="geometry" />
        </mxCell>
        <mxCell id="cr1yek8JIuXBEfepsls9-9" value="D" style="rounded=1;whiteSpace=wrap;html=1;" parent="1" vertex="1">
          <mxGeometry x="460" y="249" width="40" height="17" as="geometry" />
        </mxCell>
        <mxCell id="cr1yek8JIuXBEfepsls9-11" value="D" style="rounded=1;whiteSpace=wrap;html=1;" parent="1" vertex="1">
          <mxGeometry x="440" y="330" width="40" height="17" as="geometry" />
        </mxCell>
        <mxCell id="cr1yek8JIuXBEfepsls9-12" value="D" style="rounded=1;whiteSpace=wrap;html=1;" parent="1" vertex="1">
          <mxGeometry x="440" y="349" width="40" height="17" as="geometry" />
        </mxCell>
        <mxCell id="cr1yek8JIuXBEfepsls9-13" value="D" style="rounded=1;whiteSpace=wrap;html=1;" parent="1" vertex="1">
          <mxGeometry x="440" y="368" width="40" height="17" as="geometry" />
        </mxCell>
        <mxCell id="cr1yek8JIuXBEfepsls9-14" value="D" style="rounded=1;whiteSpace=wrap;html=1;" parent="1" vertex="1">
          <mxGeometry x="480" y="546" width="40" height="17" as="geometry" />
        </mxCell>
        <mxCell id="cr1yek8JIuXBEfepsls9-15" value="D" style="rounded=1;whiteSpace=wrap;html=1;" parent="1" vertex="1">
          <mxGeometry x="480" y="575" width="40" height="17" as="geometry" />
        </mxCell>
        <mxCell id="cr1yek8JIuXBEfepsls9-16" value="D" style="rounded=1;whiteSpace=wrap;html=1;" parent="1" vertex="1">
          <mxGeometry x="480" y="605" width="40" height="17" as="geometry" />
        </mxCell>
        <mxCell id="cr1yek8JIuXBEfepsls9-17" value="D" style="rounded=1;whiteSpace=wrap;html=1;" parent="1" vertex="1">
          <mxGeometry x="480" y="625" width="40" height="17" as="geometry" />
        </mxCell>
        <mxCell id="cr1yek8JIuXBEfepsls9-18" value="D" style="rounded=1;whiteSpace=wrap;html=1;" parent="1" vertex="1">
          <mxGeometry x="480" y="645" width="40" height="17" as="geometry" />
        </mxCell>
        <mxCell id="cr1yek8JIuXBEfepsls9-19" value="D" style="rounded=1;whiteSpace=wrap;html=1;" parent="1" vertex="1">
          <mxGeometry x="480" y="686" width="40" height="17" as="geometry" />
        </mxCell>
        <mxCell id="cr1yek8JIuXBEfepsls9-20" value="D" style="rounded=1;whiteSpace=wrap;html=1;" parent="1" vertex="1">
          <mxGeometry x="480" y="706" width="40" height="17" as="geometry" />
        </mxCell>
        <mxCell id="cr1yek8JIuXBEfepsls9-21" value="" style="shape=ellipse;fillColor=#000000;strokeColor=none;html=1;sketch=0;strokeWidth=0;" parent="1" vertex="1">
          <mxGeometry x="848" y="358.99999999999994" width="5" height="5" as="geometry" />
        </mxCell>
        <mxCell id="cr1yek8JIuXBEfepsls9-22" value="D" style="rounded=1;whiteSpace=wrap;html=1;" parent="1" vertex="1">
          <mxGeometry x="790" y="352" width="40" height="17" as="geometry" />
        </mxCell>
        <mxCell id="cr1yek8JIuXBEfepsls9-25" value="" style="shape=ellipse;fillColor=#000000;strokeColor=none;html=1;sketch=0;strokeWidth=0;" parent="1" vertex="1">
          <mxGeometry x="988" y="368" width="5" height="5" as="geometry" />
        </mxCell>
        <mxCell id="cr1yek8JIuXBEfepsls9-27" value="D" style="rounded=1;whiteSpace=wrap;html=1;" parent="1" vertex="1">
          <mxGeometry x="920" y="362" width="40" height="17" as="geometry" />
        </mxCell>
        <mxCell id="cr1yek8JIuXBEfepsls9-29" value="&lt;span style=&quot;color: rgb(0, 0, 0); font-family: Helvetica; font-size: 8px; font-style: normal; font-variant-ligatures: normal; font-variant-caps: normal; font-weight: 400; letter-spacing: normal; orphans: 2; text-align: left; text-indent: 0px; text-transform: none; widows: 2; word-spacing: 0px; -webkit-text-stroke-width: 0px; text-decoration-thickness: initial; text-decoration-style: initial; text-decoration-color: initial; float: none; display: inline !important;&quot;&gt;result_e2_q[31:0]&lt;/span&gt;" style="text;whiteSpace=wrap;html=1;" parent="1" vertex="1">
          <mxGeometry x="757" y="379" width="50" height="20" as="geometry" />
        </mxCell>
        <mxCell id="cr1yek8JIuXBEfepsls9-33" value="&lt;font style=&quot;font-size: 25px;&quot;&gt;Issue&lt;/font&gt;" style="rounded=1;whiteSpace=wrap;html=1;" parent="1" vertex="1">
          <mxGeometry x="561" y="3" width="240" height="97" as="geometry" />
        </mxCell>
      </root>
    </mxGraphModel>
  </diagram>
</mxfile>
